<?xml version="1.0" encoding="utf-8"?>
<!-- Generator: Adobe Illustrator 18.0.0, SVG Export Plug-In . SVG Version: 6.00 Build 0)  -->
<!DOCTYPE svg PUBLIC "-//W3C//DTD SVG 1.1//EN" "http://www.w3.org/Graphics/SVG/1.1/DTD/svg11.dtd">
<svg version="1.1" id="Layer_1" xmlns="http://www.w3.org/2000/svg" xmlns:xlink="http://www.w3.org/1999/xlink" x="0px" y="0px"
	 viewBox="0 0 144 144" enable-background="new 0 0 144 144" xml:space="preserve">
<path fill="#D4EA99" d="M127.6,33.9c-0.3,0-0.6,0-0.8,0.1l-17.9-9.3v-3c0.1-0.3,0.2-0.7,0.2-1.2c0-1.3-0.7-2.3-1.8-2.8L72.5,0
	c-0.9-0.4-2-0.4-2.9,0L33.9,18.1c-0.6,0.3-1.2,0.8-1.5,1.5H32V26l-15.5,8c-0.3-0.1-0.5-0.1-0.8-0.1c-1.8,0-3.2,1.5-3.2,3.2v0.4
	c0,0.2-0.1,0.4-0.1,0.6c0,0.2,0,0.4,0.1,0.6v71.9c0,1.3,0.6,2.3,1.7,2.9l56.7,30c0.5,0.2,1,0.4,1.6,0.4s1-0.1,1.6-0.4l55.2-30.6
	c1-0.6,1.7-1.7,1.7-2.8v-73C130.8,35.3,129.3,33.9,127.6,33.9z M119.8,37.8l-11.1,6.1V32.1L119.8,37.8z M38.6,28.6
	c0.1-0.4,0.1-0.8,0-1.4v-0.5l28.5,15.8v20.3L38.6,47.1V28.6z M73.7,43.2l28.8-17v21.1L73.6,63V43.2H73.7z M71.1,6.7l27.8,14L71,37.1
	L42.4,21.3L71.1,6.7z M32,33.3v10.1l-9.4-5.2L32,33.3z M18.9,43.8L67,70.4v63.7l-48.1-25.5C18.9,108.7,18.9,43.8,18.9,43.8z
	 M73.7,136.1V70.5L124.2,43v65.2L73.7,136.1z"/>
</svg>
