<?xml version="1.0" encoding="utf-8"?>
<!-- Generator: Adobe Illustrator 18.0.0, SVG Export Plug-In . SVG Version: 6.00 Build 0)  -->
<!DOCTYPE svg PUBLIC "-//W3C//DTD SVG 1.1//EN" "http://www.w3.org/Graphics/SVG/1.1/DTD/svg11.dtd">
<svg version="1.1" id="Layer_1" xmlns="http://www.w3.org/2000/svg" xmlns:xlink="http://www.w3.org/1999/xlink" x="0px" y="0px"
	 viewBox="0 0 29.6 18.9" enable-background="new 0 0 29.6 18.9" xml:space="preserve">
<g enable-background="new    ">
	<g>
		<path fill="#4A9A55" d="M15.8,2.5c-0.9,0.8-1.6,1.6-2.4,2.4c-2-1.3-4.1-1.8-6.3-0.8c-1.5,0.7-2.5,1.9-3,3.4
			c-1.1,3.4,0.8,6.8,4.1,7.7c3,0.7,5.7-0.9,6.3-3.9c-0.8,0-1.6,0-2.4,0c-0.7,0-1.5,0-2.4,0c0-1,0-1.9,0-3c2.7,0,5.6,0,8.5,0
			c1.4,4.2-1.6,9.6-6.9,10.5c-5.1,0.8-10-2.5-11.1-7.5c-1-4.8,2.2-9.8,7.2-11C10.4-0.4,13.2,0.3,15.8,2.5z"/>
		<path fill="#4A9A55" d="M24.2,8c0-0.9,0.1-1.6,0.1-2.4c0.9,0,1.6,0,2.6,0C26.9,6.3,27,7.1,27,8c0.8,0.1,1.6,0.1,2.5,0.2
			c0,0.8,0.1,1.5,0.1,2.5c-0.9,0.1-1.7,0.2-2.6,0.3c-0.1,0.8-0.1,1.6-0.2,2.5c-0.8,0-1.6,0-2.5,0c0-0.8-0.1-1.6-0.1-2.5
			c-0.8-0.1-1.6-0.1-2.5-0.2c0-0.8-0.1-1.5-0.1-2.5C22.4,8.2,23.2,8.1,24.2,8z"/>
	</g>
</g>
</svg>
