<?xml version="1.0" encoding="utf-8"?>
<!-- Generator: Adobe Illustrator 18.0.0, SVG Export Plug-In . SVG Version: 6.00 Build 0)  -->
<!DOCTYPE svg PUBLIC "-//W3C//DTD SVG 1.1//EN" "http://www.w3.org/Graphics/SVG/1.1/DTD/svg11.dtd">
<svg version="1.1" id="Layer_1" xmlns="http://www.w3.org/2000/svg" xmlns:xlink="http://www.w3.org/1999/xlink" x="0px" y="0px"
	 viewBox="0 0 144 144" enable-background="new 0 0 144 144" xml:space="preserve">
<g>
	<path fill="#D4EA99" d="M57.3,100.7c6.6,0,13.1-2.8,17.5-7.7c8.7-9.6,8.1-24.7-1.5-33.4c-4.4-3.9-10.1-6.1-16-6.1
		c-6.6,0-13.1,2.8-17.5,7.7c-4.2,4.6-6.3,10.7-6.1,17c0.2,6.3,3.1,12.2,7.7,16.4C45.7,98.5,51.4,100.7,57.3,100.7z M44.6,65.5
		c3.3-3.5,7.9-5.7,12.7-5.7c4.4,0,8.3,1.5,11.6,4.4c7,6.3,7.4,17.3,1.1,24.3c-3.3,3.5-7.9,5.7-12.7,5.7c-4.4,0-8.3-1.5-11.6-4.4
		c-3.3-3.1-5.5-7.2-5.5-11.8C40,73.4,41.5,69,44.6,65.5z"/>
	<path fill="#D4EA99" d="M120.9,19.4c2.6-1.3,5.9-2.6,10.1-2.8l-0.4-6.6c-6.6,0.4-11.6,2.6-15.1,5.2c-3.9-2.2-8.7-3.3-14-3.3
		c-10.5,0-20.5,4.2-25.6,8.1c-8.1,6.3-15.3,11.4-24.3,14.6c-17.9,6.6-26,17.9-27.3,19.9c-17,18.8-15.5,48.1,3.3,65.4
		c12.5,11.4,25.4,17,38.3,17l0,0c4.2,0,8.3-0.7,12.2-1.7c16.8-5,28.9-17.3,35-35.4c5-14.6,8.7-21.4,14.2-31.7l0.9-1.7
		C135.5,52,132.2,31,120.9,19.4z M28.9,58.7l0.4-0.4c0-0.2,7-11.1,24.3-17.5c10.9-3.9,19.2-10.3,26-15.7c4.2-3.3,13.1-6.8,21.4-6.8
		c3.3,0,6.1,0.4,8.7,1.5c-2.2,2.4-3.1,4.4-3.3,4.6l6.1,3.1c0-0.2,1.1-2,3.1-3.9c0.4,0.4,0.9,0.9,1.3,1.3c0,5-0.2,23.6-6.1,35.4
		c-1.3,2.6-2.6,5.9-4.4,9.4c-6.1,13.8-14.2,32.6-27.5,42.8c-23.8,18.4-45.2,3.9-47.4,2.4C15.3,100.3,14.2,75.1,28.9,58.7z M122,63.3
		l-0.9,1.7c-5.5,10.1-9.4,17.3-14.6,32.6c-3.7,11.1-12.2,25.6-30.8,31.3c-3.3,1.1-6.8,1.5-10.3,1.5c-4.2,0-8.3-0.7-12.7-2.2
		c0.4,0,0.7,0,1.1,0c8.3,0,18.6-2.4,29.3-10.5c14.6-11.1,23.2-30.8,29.5-45.2c1.5-3.5,2.8-6.8,4.2-9.2c4.2-8.5,5.9-19.2,6.6-27.5
		C126.3,44.8,126.1,55.5,122,63.3z"/>
</g>
</svg>
