<?xml version="1.0" encoding="utf-8"?>
<!-- Generator: Adobe Illustrator 18.0.0, SVG Export Plug-In . SVG Version: 6.00 Build 0)  -->
<!DOCTYPE svg PUBLIC "-//W3C//DTD SVG 1.1//EN" "http://www.w3.org/Graphics/SVG/1.1/DTD/svg11.dtd">
<svg version="1.1" id="Layer_1" xmlns:sketch="http://www.bohemiancoding.com/sketch/ns"
	 xmlns="http://www.w3.org/2000/svg" xmlns:xlink="http://www.w3.org/1999/xlink" x="0px" y="0px" viewBox="0 0 127 165"
	 enable-background="new 0 0 127 165" xml:space="preserve">
<title>Untitled 2</title>
<description>Created with Sketch.</description>
<g id="Page-1" sketch:type="MSPage">
	<g id="PhoenixRGB" sketch:type="MSLayerGroup">
		<g id="Phoenix" sketch:type="MSShapeGroup">
			<path id="Shape" fill="#99A3A9" d="M33.9,40.1c-0.5-1.4-1.2-2.6-2-3.8c-1-1.6-2.1-3.1-3.3-4.4C27.9,31,27,29.9,26,29.5
				c-0.2-0.1-0.3-0.1-0.5-0.1c-0.1,0-0.2,0-0.3,0c-0.4-0.1-4.4-1.1-6.3-1.6c-2.9-0.8-5.7-2-8.3-3.4c-1.1-0.6-2.3-1.3-3.3-2
				c-0.3-0.2-0.5-0.4-0.8-0.6c-0.9-1.3-1.9-2.7-3.1-3.7c-0.1,0-0.2-0.1-0.3-0.1c0.2,1,0.8,2,1.3,2.9c1.3,2.2,2.9,4.3,4.4,6.4
				c1.5,2,3.1,3.9,4.9,5.5c1.6,1.3,3.4,2.4,5.2,3.3c2,1,4.1,2.1,6.2,2.9c2.7,1,5.4,1.8,8.2,2.3c-0.1,0-0.2,0-0.4-0.1
				c0.2,0,0.3,0,0.4,0.1C34.4,41.5,34,40.4,33.9,40.1L33.9,40.1z"/>
			<path id="Shape_1_" fill="#99A3A9" d="M26.7,30c-0.3-1.4-1-2.8-1.6-4c-0.8-1.6-1.8-3.2-2.9-4.7c-0.5-0.7-1.1-1.4-1.7-2
				c-0.2-0.2-0.4-0.3-0.6-0.5c-1.9-0.5-4-0.3-6-0.8c-1.7-0.4-3.3-1.1-4.8-2c-0.9-0.6-1.7-1.2-2.5-1.8C6.4,14,6.2,13.8,6,13.6
				c0,0-0.1-0.1-0.1-0.1c-0.2-0.2-0.3-0.3-0.5-0.5c0,0,0-0.1-0.1-0.1c-0.6-0.8-1.1-1.6-1.7-2.3c-1-1.2-2.2-2.8-3.6-3.6
				c0.1,0,0.2,0.1,0.2,0.1C0.2,7.1,0.1,7.1,0,7c0,0.1,0,0.2,0.1,0.3c0,0,0,0,0,0c0,0,0,0,0,0.1c0,0.1,0.1,0.2,0.1,0.3
				c0.5,1.4,1,2.8,1.7,4.2c0.4,0.8,0.8,1.6,1.3,2.4c0.1,0.2,0.2,0.3,0.3,0.5c0.5,0.8,0.9,1.6,1.5,2.4c1.3,2,2.7,3.8,4.3,5.5
				c1.5,1.7,3.2,3.3,5.1,4.5c1.8,1.2,3.7,2.3,5.8,3c2,0.6,4.1,0.7,6.2,1c0.4,0.2,0.6,0.1,0.6-0.4C26.7,30.5,26.7,30.3,26.7,30
				L26.7,30z"/>
			<path id="Shape_2_" fill="#99A3A9" d="M26.7,30.3c0-1.4-0.4-2.9-0.8-4.3c-0.5-1.8-1.1-3.5-1.9-5.2c-0.4-0.9-0.9-2.3-1.8-2.9
				c-0.2-0.1-0.3-0.2-0.4-0.3c-0.1-0.1-0.2-0.1-0.3-0.1c-0.3-0.2-0.6-0.4-1-0.6c0.1,0.1,0.2,0.1,0.3,0.2c-1.6-1-3.2-2-4.8-3
				c-2.5-1.7-4.8-3.6-7-5.7C8.3,7.5,7.4,6.5,6.6,5.5C6.4,5.2,6.2,5,6.1,4.7C5.5,3.2,5,1.5,4.2,0.2C4.1,0.1,4.1,0.1,4,0
				C3.9,1,4.2,2.1,4.4,3.2c0.6,2.5,1.4,5,2.3,7.4c0.8,2.3,1.8,4.6,3.1,6.7c1.1,1.7,2.5,3.3,4,4.7c1.6,1.6,3.3,3.2,5.1,4.7
				c2.2,1.8,4.6,3.4,7.1,4.6c-0.1-0.1-0.2-0.1-0.3-0.2c0.1,0.1,0.3,0.1,0.4,0.2C26.7,31.8,26.7,30.6,26.7,30.3L26.7,30.3z"/>
			<path id="Shape_3_" fill="#99A3A9" d="M41.5,48.7c-0.6-1.3-1.5-2.5-2.4-3.6c-1.2-1.4-2.4-2.8-3.8-4c-0.6-0.6-1.3-1.1-2.1-1.6
				c-0.2-0.1-0.5-0.2-0.7-0.3c-2-0.1-4,0.5-6,0.4c-1.7-0.1-3.5-0.4-5.1-1c-1-0.4-1.9-0.8-2.8-1.3c-0.2-0.1-0.4-0.2-0.6-0.4
				c0,0-0.1,0-0.1-0.1c-0.2-0.1-0.4-0.3-0.6-0.4c0,0,0,0-0.1-0.1c-0.7-0.6-1.4-1.3-2.1-1.9c-1.3-1-2.7-2.3-4.3-2.8
				c0.1,0,0.2,0.1,0.3,0.1c-0.1-0.1-0.2-0.1-0.4-0.2c0,0.1,0.1,0.2,0.1,0.3c0,0,0,0,0,0c0,0,0,0,0,0c0,0.1,0.1,0.2,0.2,0.3
				c0.7,1.3,1.6,2.6,2.5,3.8c0.6,0.7,1.1,1.4,1.7,2.1c0.1,0.1,0.2,0.3,0.4,0.4c0.6,0.7,1.2,1.4,1.9,2.1c1.7,1.6,3.4,3.2,5.3,4.5
				c1.8,1.3,3.8,2.5,5.9,3.4c2,0.8,4.1,1.5,6.3,1.7c2.1,0.2,4.2-0.2,6.3-0.3c0.4,0.1,0.6-0.1,0.5-0.5C41.7,49.2,41.6,48.9,41.5,48.7
				L41.5,48.7z"/>
			<path id="Shape_4_" fill="#99A3A9" d="M50.9,58.4c-0.7-1.2-1.8-2.3-2.7-3.4c-1.3-1.3-2.7-2.6-4.2-3.7c-0.8-0.6-1.9-1.5-3-1.7
				c-0.2,0-0.3-0.1-0.5,0c-0.1,0-0.2,0-0.3,0c-0.4,0-0.7,0-1.1-0.1c0.1,0,0.2,0,0.3,0c-1.9-0.1-3.8-0.1-5.7-0.3
				c-3-0.3-6-0.8-8.9-1.6c-1.2-0.4-2.5-0.8-3.6-1.3c-0.3-0.1-0.6-0.3-0.9-0.4c-1.2-1.1-2.4-2.3-3.8-3c-0.1,0-0.2-0.1-0.3-0.1
				c0.4,1,1.2,1.8,1.9,2.6c1.7,1.9,3.7,3.7,5.6,5.4c1.8,1.6,3.8,3.2,5.9,4.4c1.8,1,3.8,1.6,5.7,2.2c2.2,0.6,4.4,1.3,6.7,1.6
				c2.8,0.5,5.6,0.7,8.5,0.6c-0.1,0-0.2,0-0.4,0c0.2,0,0.3,0,0.5,0C51.6,59.8,51.1,58.7,50.9,58.4L50.9,58.4z"/>
			<path id="Shape_5_" fill="#99A3A9" d="M29,57.3c0.3,0.2,0.7,0.3,1,0.5c0.7,0.3,1.5,0.6,1.3,0.5c3.4,1.1,7,1.1,10.4,0.4
				c-0.2,0-0.3,0.1-0.5,0.1c1.7-0.4,3.3-0.9,4.9-1.5c0.7-0.3,1.7,0.5,2.2,0.8c1.4,1,2.6,2.2,3.8,3.4c1.2,1.2,2.3,2.6,3.2,4
				c0,0,1.3,2,0.7,2.2c-4.4,1.5-8.9,2.2-13.4,0.9c-1.6-0.4-3.2-1.1-4.6-1.8c-2.4-1.2-4.5-2.9-6.6-4.7c-1.4-1.3-2.9-2.6-4-4.1
				c-0.6-0.8-1.3-1.7-1.5-2.7c0,0.1,0,0.2,0.1,0.3c0-0.2-0.1-0.4-0.1-0.6c0-0.2,2,1.3,1.8,1.1C28.9,57.4,28.7,57.2,29,57.3L29,57.3z
				"/>
			<path id="Shape_6_" fill="#99A3A9" d="M37.9,69.8c0.4,0.1,0.7,0.2,1.1,0.2c0.7,0.1,1.6,0.2,1.3,0.2c3.5,0.2,7-0.5,10.2-2
				c-0.1,0.1-0.3,0.1-0.4,0.2c1.5-0.7,3-1.6,4.4-2.6c0.7-0.4,1.7,0.1,2.3,0.3c1.6,0.6,3.1,1.5,4.5,2.4c1.4,0.9,2.8,2,4,3.1
				c0,0,1.7,1.7,1.2,2c-3.9,2.5-8.1,4.2-12.8,4c-1.6-0.1-3.3-0.3-4.9-0.7c-2.7-0.6-5.1-1.8-7.5-3.1c-1.7-0.9-3.4-1.9-4.9-3.1
				c-0.8-0.6-1.7-1.3-2.1-2.3c0,0.1,0.1,0.2,0.1,0.3c-0.1-0.2-0.2-0.4-0.2-0.6c0-0.2,2.2,0.8,2,0.7C37.9,69.8,37.7,69.8,37.9,69.8
				L37.9,69.8z"/>
			<path id="Shape_7_" fill="#99A3A9" d="M74.7,78c-1.2-0.8-2.6-1.3-3.9-1.8c-1.7-0.6-3.5-1.1-5.3-1.5c-1-0.2-2.4-0.5-3.4-0.2
				c-0.2,0.1-0.3,0.1-0.5,0.2c-0.1,0-0.2,0.1-0.2,0.1c-0.3,0.1-0.7,0.3-1,0.4c0.1,0,0.2-0.1,0.3-0.1c-1.7,0.7-3.5,1.5-5.2,2.2
				c-2.8,1.1-5.7,1.9-8.7,2.4c-1.3,0.2-2.6,0.4-3.9,0.4c-0.3,0-0.6,0-1,0c-1.5-0.4-3.2-1-4.8-1.1c-0.1,0-0.2,0-0.3,0
				c0.8,0.7,1.8,1.1,2.8,1.5c2.4,1,4.9,1.7,7.4,2.4c2.4,0.7,4.8,1.2,7.2,1.3c2.1,0.1,4.1-0.2,6.1-0.5c2.3-0.4,4.5-0.8,6.7-1.4
				c2.7-0.8,5.4-1.8,7.9-3.2c-0.1,0.1-0.2,0.1-0.3,0.2c0.1-0.1,0.3-0.1,0.4-0.2C76,78.9,75,78.2,74.7,78L74.7,78z"/>
			<path id="Shape_8_" fill="#99A3A9" d="M52.4,88.1c0.4-0.1,0.8-0.1,1.1-0.2c0.7-0.1,1.6-0.4,1.3-0.3c3.4-1.1,6.3-3.1,8.7-5.7
				c-0.1,0.1-0.2,0.2-0.3,0.3c1.1-1.3,2.2-2.6,3.1-4c0.4-0.7,1.6-0.6,2.3-0.6c1.7,0,3.4,0.2,5.1,0.6c1.7,0.3,3.3,0.8,4.9,1.4
				c0,0,2.2,0.9,1.9,1.4c-2.7,3.7-6,6.9-10.4,8.5c-1.5,0.6-3.2,1-4.8,1.2c-2.7,0.4-5.4,0.3-8.1,0c-1.9-0.2-3.8-0.5-5.7-1
				c-1-0.3-2.1-0.6-2.8-1.3c0.1,0.1,0.2,0.2,0.2,0.2c-0.2-0.2-0.3-0.3-0.4-0.4C48.4,88,50.9,88,50.7,88
				C52.4,88.1,52.2,88.1,52.4,88.1L52.4,88.1z"/>
			<path id="Shape_9_" fill="#99A3A9" d="M58.5,95.7c0.4-0.1,0.7-0.2,1.1-0.3c0.7-0.2,1.5-0.6,1.3-0.5c3.2-1.5,5.9-3.9,8-6.7
				c-0.1,0.1-0.2,0.3-0.3,0.4c1-1.4,1.8-2.8,2.6-4.4c0.4-0.7,1.5-0.8,2.2-0.8c1.7-0.2,3.4-0.2,5.1,0c1.7,0.1,3.4,0.4,5,0.8
				c0,0,2.3,0.6,2,1.2c-2.2,4-5.1,7.6-9.3,9.7c-1.5,0.7-3.1,1.3-4.6,1.8c-2.6,0.7-5.3,0.9-8.1,0.9c-1.9,0-3.9,0-5.8-0.4
				c-1-0.2-2.1-0.3-2.9-1c0.1,0.1-0.1,0-0.2-0.2c-0.1-0.1,2.3-0.4,2.1-0.4C58.5,95.7,58.3,95.7,58.5,95.7L58.5,95.7z"/>
			<path id="Shape_10_" fill="#99A3A9" d="M89.2,86.9c-1.5-0.1-3,0.1-4.4,0.3c-1.8,0.3-3.7,0.7-5.4,1.2c-0.9,0.3-2.3,0.6-3,1.4
				c-0.1,0.1-0.2,0.2-0.3,0.4C76,90.2,76,90.3,76,90.4c-0.2,0.3-0.4,0.6-0.6,0.8c0.1-0.1,0.1-0.2,0.2-0.3c-1.1,1.4-2.1,2.8-3.2,4.2
				c-1.8,2.2-3.8,4.2-6.1,6c-1,0.8-2,1.5-3.1,2.1c-0.3,0.2-0.5,0.3-0.8,0.4c-1.6,0.3-3.3,0.6-4.7,1.3c-0.1,0.1-0.1,0.1-0.2,0.2
				c1.1,0.2,2.2,0.1,3.2,0c2.6-0.3,5.1-0.8,7.7-1.4c2.4-0.5,4.8-1.2,6.9-2.2c1.8-0.9,3.4-2,4.9-3.2c1.7-1.4,3.4-2.7,5-4.3
				c1.9-1.9,3.6-4,5-6.2C90.1,87.8,90,87.9,90,88c0.1-0.1,0.1-0.2,0.3-0.3C90.8,87.1,89.6,86.9,89.2,86.9L89.2,86.9z"/>
			<path id="Shape_11_" fill="#99A3A9" d="M102,85.7c-0.1-1.4-0.4-2.7-0.9-3.9c-0.4-1-0.8-2.2-1.6-3c0.1,0.1,0.1,0.1,0,0
				c-0.6,0-1.1,0.1-1.6,0.6c-0.4,0.3-0.8,0.6-1.2,0.9c-1.7,1.4-3.2,3-4.6,4.6c-1.4,1.6-2.7,3.3-3.8,5c-0.1,0.2-1.4,2.3-0.7,2.5
				c0.6,0.2,1,0.6,1.2,1.1c1,2,1.7,4.3,1.9,6.6c0.3,3.1-0.1,6.3-0.6,9.5c-0.5,2.6-1,5.2-1.7,7.8c-0.2,0.6-0.3,1.3-0.6,1.9
				c-0.1,0.3-0.2,0.5-0.3,0.8c-0.1,0.1-0.1,0.2-0.2,0.3c-0.9,1.5-1.8,2.9-2.6,4.4c0,0-0.9,1.5-0.1,0.9c1.5-1.2,2.6-2.8,3.7-4.3
				c2.1-2.7,3.9-5.6,5.6-8.4c1.3-2.1,2.4-4.2,3.3-6.3c0.2-0.6,0.8-2,0.9-2.2c0.4-0.9,0.7-1.8,1-2.8c0.5-1.5,0.9-3,1.3-4.5
				C101.5,93.2,102.4,89.3,102,85.7L102,85.7z"/>
			<path id="Shape_12_" fill="#99A3A9" d="M126.3,61.2c0.1,0.1,0.1,0.2,0.2,0.2c-0.5-0.8-1.4-1.3-2.2-1.7c-1.5-0.8-3.2-1.4-4.9-2
				c-2.4-0.8-4.8-1.4-7.3-1.6c-1.5-0.1-3.1,0-4.7,0.2c-4.4,0.6-8.2,2.8-11.6,5.7c0,0,0,0.1,0,0.1c-1.3,1.1-2.5,2.4-3.6,3.6
				c-1.8,2.1-3.5,4.2-4.8,6.7c-0.7,1.3-1.3,2.8-1.7,4.2c-0.5-0.9-1-1.8-1.7-2.3c-1.3-0.9-2.6-1.9-3.9-2.8
				c-11.1-7.6-22.3-15.1-32.3-24.2c-0.1-0.1-0.8-0.7-0.8-0.8c-0.2-0.2-0.4-0.4-0.6-0.6c-0.6-0.5-1.2-1.1-1.7-1.7
				c-1.1-1.1-2.3-2.2-3.4-3.4c-2.3-2.4-4.6-4.9-6.7-7.5c-1.1-1.4-2.3-2.7-3.3-4.1c-0.2-0.2-0.4-0.5-0.5-0.7
				c-0.1-0.1-0.1-0.1-0.1-0.2c-0.5-0.6-0.9-1.3-1.3-1.9c-0.3-0.5-0.6-1-1-1.5c-0.1-0.1-0.2-0.3-0.3-0.5c-1.1-2.6-0.5-1-0.5-1.1
				c-1-2.6-2.1-5.1-3.4-7.5c-0.7-1.3-1.5-3.1-2.7-4.2c-1-0.9-0.6,1.3-0.6,1.4c0,0,0,0.1,0,0.1c0,0.5,0,1,0.1,1.5
				c0.1,0.8,0.3,1.6,0.4,2.4c0.6,2.6,1.4,5,2.2,7.5c1.4,4.1,3.3,8,5.3,11.8c3.6,6.9,8.2,13.7,13.5,19.5c4.7,5.2,9.9,9.9,15.3,14.3
				c5.5,4.5,11.1,8.7,16.9,12.9h0c0,0,0.1,0,0.2,0.1c0.6,0.4,1.2,0.8,1.7,1.2c1.9,1.6,4.3,4.8,2.9,9.6c-0.5,0.9-1,1.9-1.4,2.8
				c-0.2,0.4-0.4,0.8-0.6,1.3c-0.1,0.1-0.1,0.2-0.1,0.2c-0.5,1.1-1,2.3-1.5,3.4c-1.5,1.8-3.2,3.4-5.3,4.7c-0.5,0.3-1,0.5-1.5,0.8
				c-0.4,0.2-0.7,0.3-1.1,0.4c-0.2,0.1,0,0-1.7,0.3c0.2,0-2.2,0.4-2.1,0.6c0.2,0.1,0.3,0.2,0.5,0.3c-0.1-0.1-0.2-0.1-0.3-0.2
				c0.9,0.6,2,0.6,3,0.7c1.9,0.1,3.9,0,5.8-0.2c-0.7,2.2-1.2,4.5-1.6,6.8c-0.1,0.5-0.2,1-0.2,1.6c-1.4,1.9-2.9,3.8-4.6,5.5
				c-1.4,1.5-3,2.9-4.5,4.2c-0.8,0.7-1.6,1.3-2.4,2c-0.4,0.3-0.8,0.6-1.1,0.9c-0.2,0.2-0.4,0.3-0.6,0.4c0,0,0,0,0,0
				c-1.7,1.2-3.5,2.3-5.3,3.3c-0.9,0.5-1.8,1-2.8,1.5c-0.5,0.2-1,0.5-1.5,0.7c-0.2,0.1-0.4,0.2-0.5,0.2c0,0,0,0-0.1,0
				c-1.9,0.8-3.7,1.5-5.7,2.1c-0.2,0.1-0.4,0.1-0.6,0.2c-0.4,0.1-0.9,0.2-1.3,0.3c-0.4,0.1-0.9,0.2-1.3,0.3c-0.1,0-0.3,0.1-0.4,0.1
				c-1.5,0.3-3,0.6-4.4,1.2c-0.4,0.2-1.6,0.8-0.7,1.3c1.1,0.6,2.6,0.5,3.8,0.5c2.1,0,4.1-0.3,6.1-0.6c6.7-1.1,13.3-3.3,19.5-6.3
				c-0.5,0.5-1,1-1.6,1.5c-0.9,0.9-1.9,1.7-2.9,2.5c-0.2,0.2-0.4,0.3-0.6,0.5c-0.5,0.4-0.9,0.7-1.4,1.1c-0.9,0.7-1.9,1.4-2.8,2
				c-0.2,0.2-0.5,0.3-0.6,0.4c-0.5,0.3-1,0.6-1.5,0.9c-0.2,0.1-0.4,0.2-0.6,0.4c-0.5,0.3-1,0.5-1.5,0.8c0,0-0.1,0.1-0.1,0.1
				c-0.4,0.2-0.9,0.4-1.3,0.6c-0.1,0-0.1,0.1-0.2,0.1c-0.4,0.1-0.7,0.3-1.1,0.4c-1.1,0.3-2.2,0.6-3.3,0.9c-0.4,0.1-0.7,0.2-1.1,0.3
				c-0.1,0-0.2,0-0.4,0.1c-2.2,0.4-4.3,1.4-6.3,2.4c-1.7,0.8-3.4,1.7-4.9,2.8c-0.1,0-0.1,0.1-0.2,0.2c-0.1,0-0.2,0.1-0.2,0.1
				c-0.3,0.2-1.8,1.1-1.8,1.7c0.1,0.7,6.7-0.9,7.8-1.2c9.4-2.4,18.3-6.7,26.5-12c-0.4,0.7-0.9,1.3-1.3,2c-0.2,0.3-0.5,0.6-0.6,0.8
				c-0.4,0.5-0.7,0.9-1.1,1.4c-0.2,0.2-0.3,0.4-0.5,0.6c-0.4,0.4-0.7,0.8-1.1,1.3c0,0-0.1,0.1-0.1,0.1c-0.3,0.4-0.7,0.7-1,1.1
				c-0.1,0.1-0.1,0.1-0.2,0.2c-0.3,0.3-0.6,0.5-0.8,0.8c-0.9,0.7-1.9,1.3-2.8,2c-0.3,0.2-0.6,0.4-0.9,0.6c-0.1,0.1-0.2,0.1-0.3,0.2
				c-1.9,1.1-3.6,2.9-5.1,4.4c-1.3,1.4-2.5,2.8-3.6,4.4c0,0.1-0.1,0.1-0.1,0.2c-0.1,0.1-0.1,0.1-0.2,0.2c-0.2,0.3-1.3,1.6-1.1,2.2
				c0.3,0.6,5.9-3.2,6.8-3.9c9.7-6.8,17.9-16,24.4-25.9c0.1-0.1,0.2-0.2,0.2-0.4c5.8-4.8,11-10.2,15-16.5c1-1,1.8-1.9,1.9-2.4
				c2.8-9.1,3.1-13.4,2.4-17c0.5-0.2,1-0.4,1.5-0.3c0.9,0.2,1.3-2.6,1.4-2.9c0.1-0.7,0.2-1.4,0.3-2.1c0.9-0.7,1.8-1.5,2.6-2.4
				c0.1-0.2,1.6-1.7,1.1-2.2c-0.4-0.4-0.5-0.9-0.6-1.5c-0.2-2.3-0.1-4.7,0.3-7c0.6-3.1,1.6-6,2.8-8.8c0.3-0.7,0.6-1.4,0.9-2.1
				c0.8,0,1.7-0.1,2.5-0.4c1-0.4,1.8-0.9,2.4-1.6c0,0,0.1-0.1,0.1-0.1c1.2-1,2.4-2,3.7-2.9c2.7-1.7,5.6-2.8,8.7-3.2
				c0.6,0,1.1-0.1,1.7-0.1c0.4,0,0.7,0,1.1,0c0.2,0,0,0,1.5,0.4c-0.2,0,2,0.4,2,0.3C126.6,61.5,126.5,61.4,126.3,61.2L126.3,61.2z
				 M30.9,29.3C31,29.3,31,29.3,30.9,29.3L30.9,29.3L30.9,29.3z M42.1,148.1c-0.1,0-0.1,0-0.2,0C42.6,147.9,42.4,148,42.1,148.1
				L42.1,148.1z M50.8,144.8C51.5,144.4,51.2,144.6,50.8,144.8L50.8,144.8L50.8,144.8z M57.5,140.2C58.5,139.4,57.8,140,57.5,140.2
				L57.5,140.2L57.5,140.2z M52.2,152.7c-0.1,0-0.1,0.1-0.2,0.1C52.6,152.5,52.5,152.6,52.2,152.7L52.2,152.7z M59.1,146.7
				C59.8,145.9,59.4,146.4,59.1,146.7L59.1,146.7L59.1,146.7z"/>
		</g>
	</g>
</g>
</svg>
