<?xml version="1.0" encoding="utf-8"?>
<!-- Generator: Adobe Illustrator 18.0.0, SVG Export Plug-In . SVG Version: 6.00 Build 0)  -->
<!DOCTYPE svg PUBLIC "-//W3C//DTD SVG 1.1//EN" "http://www.w3.org/Graphics/SVG/1.1/DTD/svg11.dtd">
<svg version="1.1" id="Layer_1" xmlns:sketch="http://www.bohemiancoding.com/sketch/ns"
	 xmlns="http://www.w3.org/2000/svg" xmlns:xlink="http://www.w3.org/1999/xlink" x="0px" y="0px" viewBox="0 0 2221 1930"
	 enable-background="new 0 0 2221 1930" xml:space="preserve">
<title>Untitled 2</title>
<description>Created with Sketch.</description>
<g id="Page-1" sketch:type="MSPage">
	<g id="Windows_logo" sketch:type="MSLayerGroup">
		<g id="Livello_x0020_1" transform="translate(0.077495, 0.412000)" sketch:type="MSShapeGroup">
			<g id="g3000" transform="translate(0.000000, -0.302000)">
				<path id="path13" fill="#99A3A9" d="M0,265.6l791.6-108.8v763.9H0L0,265.6L0,265.6z M791.6,1018.4v755.2L0.1,1665l0-646.5
					L791.6,1018.4L791.6,1018.4z M879.1,144.8L1932.4,0v920.7H879.1V144.8L879.1,144.8z M1932.4,1018.4v911.9L879.1,1785.7v-767.2
					H1932.4L1932.4,1018.4z"/>
				<path id="path17" d="M2091.7,1843.4h-30.4v86h-17.6v-86h-30.4v-14.1h78.4V1843.4L2091.7,1843.4z M2221,1929.4h-17.4v-64.7
					c0-5.3,0.3-11.8,1-19.4h-0.3c-1.1,4.3-2,7.5-2.9,9.4l-31.6,74.8h-12.1l-31.7-74.2c-0.9-2.2-1.8-5.5-2.8-10h-0.3
					c0.4,4,0.6,10.5,0.6,19.6v64.6h-16.3v-100.1h24.8l27.9,66.6c2.1,5.1,3.5,8.9,4.1,11.4h0.3c1.8-5.3,3.3-9.2,4.4-11.7l28.4-66.3
					h23.9L2221,1929.4L2221,1929.4z"/>
			</g>
		</g>
	</g>
</g>
</svg>
