<?xml version="1.0" encoding="utf-8"?>
<!-- Generator: Adobe Illustrator 18.0.0, SVG Export Plug-In . SVG Version: 6.00 Build 0)  -->
<!DOCTYPE svg PUBLIC "-//W3C//DTD SVG 1.1//EN" "http://www.w3.org/Graphics/SVG/1.1/DTD/svg11.dtd">
<svg version="1.1" id="Layer_1" xmlns:sketch="http://www.bohemiancoding.com/sketch/ns"
	 xmlns="http://www.w3.org/2000/svg" xmlns:xlink="http://www.w3.org/1999/xlink" x="0px" y="0px" viewBox="0 0 247 302"
	 enable-background="new 0 0 247 302" xml:space="preserve">
<title>Untitled 2</title>
<g sketch:type="MSLayerGroup">
	<path id="Shape" sketch:type="MSShapeGroup" fill="#99A3A9" d="M237.8,102.6L237.8,102.6l0.1,0.7l-0.1,0.1l-0.1,0.1l-5.4,4
		c-3.6,2.7-6.8,5.4-9.5,8.3c-2.7,2.8-5.2,5.9-7.3,9.3s-3.9,6.7-5.2,10c-1.3,3.3-2.3,6.7-3.1,10.2c-0.7,3.4-1.1,8.2-1.1,14.3
		s0.4,11.1,1.2,14.9c0.8,3.9,2,7.6,3.5,11.3c1.5,3.7,3.4,7.1,5.5,10.3c2.1,3.2,4.4,6.1,6.7,8.5c2.3,2.4,4.8,4.7,7.3,6.8
		c2.5,2.1,5.4,4.1,8.6,6s5,2.9,5.3,3l0.5,0.2l0.3,0.2l0.3,0.2l0.3,0.1l0.3,0.1v0.6l-4,10c-2.7,6.7-5.5,12.7-8.4,18
		c-2.9,5.3-6.3,10.8-10.1,16.4c-3.9,5.6-7.3,10.2-10.4,13.9c-3.1,3.7-6,6.7-8.5,9.1c-2.6,2.4-5.3,4.4-8,6s-5.5,2.8-8.2,3.7
		s-4.5,1.3-5.3,1.4l-1.2,0.2l-0.3,0.1l-0.3,0.1l-2.4-0.1c-1.6-0.1-4.1-0.4-7.3-1c-3.3-0.6-8.2-2.1-14.8-4.4
		c-6.6-2.3-11.8-3.9-15.6-4.7s-7.6-1.2-11.6-1.2c-4,0-7.5,0.3-10.7,0.9s-7.7,2-13.7,4.1c-6,2.1-10.9,3.7-14.6,4.7l-5.6,1.5l-1.2,0.2
		l-1.2,0.2v0.2h-6.1v-0.2l-1.1-0.2l-1.1-0.2l-0.6-0.2c-0.4-0.1-1.1-0.3-2.1-0.6c-1-0.3-2.8-1.1-5.3-2.3c-2.5-1.2-5.3-3-8.2-5.3
		s-5.7-4.9-8.2-7.6c-2.5-2.7-5.9-6.9-10.2-12.5c-4.2-5.6-7.8-10.9-10.8-15.7c-3-4.8-5.9-10.1-8.7-15.9c-2.8-5.8-5.4-12-7.7-18.5
		c-2.3-6.5-4.3-13.1-5.9-19.8c-1.6-6.7-2.9-13.6-3.8-20.7L1,170.5v-13.7h0.2l0.9-7.9c0.6-5.3,1.5-10.2,2.7-14.9
		c1.2-4.7,2.7-9,4.4-12.9s3.7-7.8,5.9-11.4c2.2-3.7,4.5-6.8,6.8-9.5c2.3-2.7,4.7-5.2,7.2-7.5s5.7-4.7,9.6-7.2s7.8-4.5,11.7-6.1
		c4-1.6,7.9-2.8,11.9-3.7c4-0.8,8.3-1.2,13-1.2s9.5,0.6,14.3,1.8s11,3.1,18.5,5.8s11.8,4.1,13.1,4.4c1.3,0.3,2.9,0.4,4.7,0.3
		c1.8-0.1,8-1.9,18.5-5.5c10.5-3.6,17.7-5.7,21.8-6.5c4.1-0.8,8.4-1.2,13-1.2s9.4,0.5,14.5,1.5c5.1,1,9.5,2.2,13.1,3.7
		c3.7,1.4,7.1,3.1,10.3,5c3.2,1.9,6.2,4,8.9,6.3c2.7,2.3,5.2,4.8,7.5,7.5s3.5,4.1,3.8,4.5L237.8,102.6L237.8,102.6z"/>
	<path id="Shape_3_" sketch:type="MSShapeGroup" fill="#99A3A9" d="M181.3,1.1L181.3,1.1l2.1-0.1l0.1,1.7c0.1,1.1,0,3.7-0.2,7.6
		c-0.2,4-0.7,7.6-1.5,11s-1.9,6.7-3.4,10s-3.3,6.8-5.5,10.3c-2.2,3.5-4.6,6.7-7.1,9.5c-2.5,2.8-5.2,5.4-8.2,7.7c-3,2.4-6,4.4-9,6
		c-3,1.6-6.3,2.8-10,3.7c-3.7,0.9-7.2,1.4-10.5,1.5l-5,0.1l0.2-7c0.1-4.7,0.7-8.8,1.6-12.5c0.9-3.7,2.2-7.1,3.7-10.4
		c1.6-3.3,3.4-6.4,5.4-9.4c2-2.9,4.2-5.7,6.6-8.4s5-5.1,7.9-7.3c2.9-2.2,6.1-4.3,9.5-6.1c3.4-1.8,6.9-3.4,10.7-4.7s6.8-2.2,9.2-2.6
		C180.1,1.4,181.3,1.1,181.3,1.1L181.3,1.1z"/>
</g>
</svg>
