<?xml version="1.0" encoding="utf-8"?>
<!-- Generator: Adobe Illustrator 18.0.0, SVG Export Plug-In . SVG Version: 6.00 Build 0)  -->
<!DOCTYPE svg PUBLIC "-//W3C//DTD SVG 1.1//EN" "http://www.w3.org/Graphics/SVG/1.1/DTD/svg11.dtd">
<svg version="1.1" id="Layer_1" xmlns:sketch="http://www.bohemiancoding.com/sketch/ns"
	 xmlns="http://www.w3.org/2000/svg" xmlns:xlink="http://www.w3.org/1999/xlink" x="0px" y="0px" viewBox="206.5 1 188 242"
	 enable-background="new 206.5 1 188 242" xml:space="preserve">
<title>Untitled 13</title>
<description>Created with Sketch (http://www.bohemiancoding.com/sketch)</description>
<g id="Page-1" sketch:type="MSPage">
	<path id="Rectangle-1_10_" sketch:type="MSShapeGroup" opacity="0.5528" fill="#317342" enable-background="new    " d="M94,1"/>
</g>
<path id="Rectangle-1_5_" sketch:type="MSShapeGroup" opacity="0.5528" fill="#317342" enable-background="new    " d="M300.6,21
	l-94.1,54.5V135l94.1,54.2l94.1-54.2V74.5L300.6,21z"/>
<path id="Rectangle-1_7_" sketch:type="MSShapeGroup" fill="#D4EB95" d="M300.6,65l-94.1,53.5v65.5l94.1,54.2l94.1-54.2v-66.5
	L300.6,65z"/>
<path id="Rectangle-1_6_" sketch:type="MSShapeGroup" fill="#96DC75" d="M300.6,59l-94.1,54.5v58.5l94.1,54.2l94.1-54.2v-59.5
	L300.6,59z"/>
<path id="Rectangle-1_8_" sketch:type="MSShapeGroup" opacity="0.5528" fill="#317342" enable-background="new    " d="M300.6,59
	l-94.1,54.5v27.6l94.1,54.2l94.1-54.2v-28.6L300.6,59z"/>
<path id="Rectangle-1_4_" sketch:type="MSShapeGroup" opacity="0.5528" fill="#34954C" enable-background="new    " d="M300.6,124.2
	L206.5,75v65.8l94.1,54.4l94.1-54.4V74L300.6,124.2z"/>
</svg>
