<?xml version="1.0" encoding="utf-8"?>
<!-- Generator: Adobe Illustrator 18.0.0, SVG Export Plug-In . SVG Version: 6.00 Build 0)  -->
<!DOCTYPE svg PUBLIC "-//W3C//DTD SVG 1.1//EN" "http://www.w3.org/Graphics/SVG/1.1/DTD/svg11.dtd">
<svg version="1.1" id="Layer_1" xmlns:sketch="http://www.bohemiancoding.com/sketch/ns"
	 xmlns="http://www.w3.org/2000/svg" xmlns:xlink="http://www.w3.org/1999/xlink" x="0px" y="0px" viewBox="0 0 256 300"
	 enable-background="new 0 0 256 300" xml:space="preserve">
<title>Untitled 2</title>
<description>Created with Sketch.</description>
<g id="Page-1" sketch:type="MSPage">
	<g id="Group" sketch:type="MSLayerGroup">
		<path id="Shape" sketch:type="MSShapeGroup" fill="#99A3A9" d="M123.5,73.5c0,1-1,1-1,1h-1c-1,0-1-1-2-2c0,0-1-1-1-2s0-1,1-1l2,1
			C122.5,71.5,123.5,72.5,123.5,73.5 M105.6,63.6c0-5-2-7.9-5-7.9c0,0,0,1-1,1v2h3c0,2,1,3,1,5H105.6 M140.5,58.6c2,0,3,2,4,5h2
			c-1-1-1-2-1-3s0-2-1-3s-2-2-3-2c0,0-1,1-2,1C139.5,57.6,140.5,57.6,140.5,58.6 M110.6,74.5c-1,0-1,0-1-1s0-2,1-3c2,0,3-1,3-1
			c1,0,1,1,1,1c0,1-1,2-3,4H110.6 M99.6,73.5c-4-2-5-5-5-9.9c0-3,0-5,2-7c1-2,3-3,5-3s3,1,5,3c1,3,2,6,2,8.9v1v1h1v-1c1,0,1-2,1-6
			c0-3,0-6-2-8.9s-4-5-8-5c-3,0-6,2-7,5c-2,4-2.4,7-2.4,11.9c0,4,1.4,7.9,5.4,11.9C97.6,74.5,98.6,74.5,99.6,73.5 M224.1,213.6
			c1,0,1-0.4,1-1.3c0-2.2-1-4.8-4-7.6c-3-3-8-4.9-13.9-5.7c-1-0.1-2-0.1-2-0.1c-1-0.2-1-0.2-2-0.2c-1-0.1-3-0.3-4-0.5
			c3-9.2,4-17.4,4-24.5c0-9.9-2-16.9-6-22.8s-8-8.9-12.9-9.9c-1,1-1,1-1,2c5,2,10,6,12.9,11.9c3,7,4,12.9,4,19.9
			c0,5.6-1,13.8-5,24.3c-4,1.6-8,5.3-11,11c0,0.9,0,1.4,1,1.4c0,0,1-0.9,2-2.6c2-1.7,3-3.4,5-5.1c3-1.7,5-2.6,8-2.6
			c5,0,10,0.7,12.9,2.1c4,1.3,6,2.7,7,4.3c1,1.5,2,2.9,3,4.2C223.1,213,224.1,213.6,224.1,213.6 M132.5,69.5c-1-1-1-3-1-5
			c0-4,0-6,2-8.9c2-2,4-3,6-3c3,0,5,2,7,4c1,3,2,5,2,7.9c0,5-2,7.9-6,8.9c0,0,1,1,2,1c2,0,3,1,5,2c1-6,2-9.9,2-14.9
			c0-6-1-9.9-3-12.9c-3-3-6-4-10-4c-3,0-6,1-9,3c-2,3-3,5-3,7.9c0,5,1,8.9,3,12.9C130.5,68.5,131.5,69.5,132.5,69.5 M144.4,85.4
			c-12.9,8.9-22.9,12.9-30.9,12.9c-7,0-13.9-3-19.9-7.9c1,2,2,4,3,5l6,6c4,4,9,6,13.9,6c7,0,14.9-4,24.9-10.9l9-6c2-2,4-4,4-7
			c0-1,0-2-1-2c-1-2-6-5-15.9-7.9c-9-4-15.9-6-19.9-6c-3,0-8,2-14.9,6c-6,4-10,7.9-10,11.9c0,0,1,1,2,3c6,5,12,7.9,17.9,7.9
			c8,0,17.9-4,30.9-13.9v2C144.4,84.4,144.4,85.4,144.4,85.4 M167.3,286.1c4,7.5,11,11.2,18.9,11.2c2,0,4-0.3,6-0.9
			c2-0.4,4-1.1,5-1.9c1-0.7,2-1.4,3-2.2c2-0.7,2-1.2,3-1.7l16.9-14.6c4-3.2,8-5.9,12.9-8.3c4-2.4,8-4,10-4.9c3-0.8,5-2,7-3.6
			c1-1.5,2-3.4,2-5.8c0-2.9-2-5.1-4-6.7s-4-2.7-6-3.4s-4-2.3-7-5c-2-2.6-4-6.2-5-10.8l-1-5.8c-1-2.7-1-4.7-2-5.8c0-0.3,0-0.4-1-0.4
			s-3,0.9-4,2.6c-2,1.7-4,3.6-6,5.6c-1,2-4,3.8-6,5.5c-3,1.7-6,2.6-8,2.6c-8,0-12-2.2-14.9-6.5c-2-3.2-3-6.9-4-11
			c-2-1.7-3-2.6-5-2.6c-5,0-7,5.2-7,15.6v3.3v11.5v8.8v4.3v3c0,0.9-1,2.9-1,6c-1,3.1-1,6.6-1,10.5l-2,11V286.1 M22.9,280.8
			c9.3,1.4,19.9,4.2,32,8.7c12.1,4.4,19.4,6.7,22.1,6.7c7,0,12.8-3.1,17.5-9c1-1.9,1-4.2,1-6.8c0-9.4-5.7-21.3-17-35.7l-6.8-9
			c-1.4-1.9-3.1-4.8-5.3-8.6c-2.1-3.9-4-6.9-5.5-8.9c-1.3-2.3-3.4-4.6-6.1-6.9c-2.6-2.3-5.6-3.8-8.9-4.6c-4.2,0.8-7.1,2.2-8.5,4.1
			c-1.4,1.9-2.2,4-2.4,6.2c-0.3,2.1-0.9,3.5-1.9,4.2c-1,0.6-2.7,1.1-5,1.6c-0.5,0-1.4,0-2.7,0.1h-2.7c-5.3,0-8.9,0.6-10.8,1.6
			c-2.5,2.9-3.8,6.2-3.8,9.6c0,1.6,0.4,4.3,1.2,8c0.8,3.7,1.2,6.7,1.2,8.7c0,4.1-1.2,8.1-3.7,12.2c-2.5,4.3-3.8,7.5-3.8,9.7
			C4.3,276.5,10.9,279.2,22.9,280.8 M56.1,190.5c0-6.9,1.8-14.4,5.5-23.3c3.6-8.9,7.2-14.9,10.7-18.9c-0.2-1-0.7-1-1.5-1l-1-1
			c-2.9,3-6.4,9.9-10.6,19.9c-4.2,8.9-6.4,17.2-6.4,23.2c0,4.5,1.1,8.3,3.1,11.7c2.2,3.3,7.5,8,15.8,14.1l10.6,6.9
			c11.3,9.7,17.2,16.5,17.2,20.5c0,2.1-1,4.2-4,6.5c-2,2.4-4.7,3.6-7,3.6c-0.2,0-0.3,0.2-0.3,0.7c0,0.1,1,2.1,3.1,6
			c4.2,5.7,13.1,8.4,25.1,8.4c21.9,0,38.8-8.9,51.8-26.8c0-5,0-8-1-9.3v-3.7c0-6.5,1-11.3,3-14.5c2-3.2,4-4.7,7-4.7c2,0,4,0.7,6,2.2
			c1-7.6,1-14.3,1-20.3c0-9,0-16.5-2-23.4c-1-6-3-10.9-5-14.9c-2-3-4-6-6-8.9s-3-6-5-8.9c-1-4-2-7-2-11.9c-3-5-5-9.9-8-14.9
			c-2-5-4-9.9-6-13.9l-9,7c-10,7-17.9,9.9-24.9,9.9c-6,0-11-1-13.9-5l-6-5c0,3-1,7-3,10.9l-6.3,11.9c-2.8,7-4.3,10.9-4.6,13.9
			c-0.4,2-0.7,4-0.9,4l-7.5,14.9c-8.1,14.9-12.2,28.7-12.2,40.1c0,2.3,0.2,4.7,0.6,7.1C58.3,200.3,56.1,196,56.1,190.5 M127.4,284.5
			c-12.9,0-22.9,1.7-29.9,5.2v-0.3c-5,6-10.6,9-18.3,9c-4.9,0-12.6-1.9-22.9-5.7c-10.5-3.6-19.7-6.3-27.8-8.1
			c-0.8-0.2-2.6-0.6-5.5-1c-2.8-0.4-5.4-0.9-7.7-1.4c-2.1-0.4-4.5-1.1-7.1-2c-2.5-0.8-4.5-1.8-6-3c-1.4-1.3-2.1-2.7-2.1-4.2
			c0-1.6,0.3-3.3,1-5.1c0.6-1.1,1.3-2.2,2-3.2c0.7-1.1,1.3-2.1,1.7-3.1c0.6-0.9,1-1.8,1.4-2.8c0.4-0.9,0.8-1.8,1-2.9
			c0.2-1,0.4-2,0.4-3s-0.4-4-1.2-9.2c-0.8-5.2-1.2-8.4-1.2-9.8c0-4.4,1-7.8,3.2-10.3s4.3-3.8,6.5-3.8h11.5c0.9,0,2.3-0.5,4.4-1.7
			c0.7-1.6,1.3-2.9,1.7-4.1c0.5-1.2,0.7-2.1,0.9-2.5c0.2-0.6,0.4-1.2,0.6-1.7c0.4-0.7,0.9-1.5,1.6-2.3c-0.8-1-1.2-2.3-1.2-3.9
			c0-1.1,0-2.1,0.2-2.7c0-3.6,1.7-8.6,5.3-15.3l3.5-6.3c2.9-5.4,5.1-9.3,6.7-13.3c1.7-4,3.5-9.9,5.5-17.9c1.6-7,5.4-13.9,11.4-20.9
			l7.5-8.9c5.2-6,8.6-10.9,10.5-14.9s2.9-8.9,2.9-12.9c0-2-0.5-7.9-1.6-17.9c-1-9.9-1.5-19.9-1.5-28.8c0-7,0.6-11.9,1.9-16.9
			c1.3-5,3.6-9.9,7-13.9c3-4,7-7.9,12.9-9.9s12.9-3,20.9-3c3,0,6,0,9,1c3,0,7,1,12,3c4,2,8,4,11,7c4,3,7,7.9,10,12.9
			c2,6,4,11.9,5,19.9c1,5,1,9.9,2,16.9c0,6,1,9.9,1,12.9c1,3,1,7,2,11.9c1,4,2,7.9,4,10.9c2,4,4,7.9,7,11.9c3,5,7,9.9,11,15.9
			c9,9.9,15.9,20.9,19.9,31.8c5,9.9,8,22.8,8,36.7c0,6.9-1,13.5-3,20c2,0,3,0.8,4,2.2s2,4.4,3,9l1,7.4c1,2.2,2,4.3,5,6.1
			c2,1.8,4,3.3,7,4.5c2,1,5,2.4,7,4.2c2,2,3,4.1,3,6.3c0,3.4-1,5.9-3,7.6c-2,2-4,3.4-7,4.3c-2,1-6,3-12,5.8c-5,2.9-10,6.5-14.9,10.7
			l-10,8.5c-4,3.9-8,6.7-11,8.3c-3,1.8-7,2.7-11,2.7l-7-0.8c-8-2.1-12.9-6.1-15.9-12.1C148.3,285.4,135.4,284.4,127.4,284.5"/>
	</g>
</g>
</svg>
