<?xml version="1.0" encoding="utf-8"?>
<!-- Generator: Adobe Illustrator 18.0.0, SVG Export Plug-In . SVG Version: 6.00 Build 0)  -->
<!DOCTYPE svg PUBLIC "-//W3C//DTD SVG 1.1//EN" "http://www.w3.org/Graphics/SVG/1.1/DTD/svg11.dtd">
<svg version="1.1" id="Layer_1" xmlns="http://www.w3.org/2000/svg" xmlns:xlink="http://www.w3.org/1999/xlink" x="0px" y="0px"
	 viewBox="0 0 144 144" enable-background="new 0 0 144 144" xml:space="preserve">
<path fill="#D4EA99" d="M96.5,33.3c-2.1-10.5-12.6-21.8-25.3-21.8S47.9,22.8,45.8,33.3H7.1v96.2h129.7V33.3
	C136.9,33.3,96.5,33.3,96.5,33.3z M13.4,56.1l16.3-15.9v-0.6h61.1v13.8l-8.4,7.5v31h23v-31l-8.4-7.3v-14h16.5l-0.2,0.6l17.2,16.9
	V105l-17.2,17.2l0.6,1H29.3l0.4-1l-16.3-16.1V56.1z M94,59.2l5.2,4.6v22H88.7V63.6L94,59.2z M130.6,48.3l-9-8.6h9V48.3z M71.2,17.8
	c9.4,0,17.2,7.1,19,15.5H52.1C54,24.9,61.7,17.8,71.2,17.8z M21.8,39.5l-8.4,7.5v-7.5H21.8z M13.4,115.1l8.6,8.2h-8.6V115.1z
	 M121.4,123.2l9.2-9.2v9.2H121.4z"/>
</svg>
