<?xml version="1.0" encoding="utf-8"?>
<!-- Generator: Adobe Illustrator 18.0.0, SVG Export Plug-In . SVG Version: 6.00 Build 0)  -->
<!DOCTYPE svg PUBLIC "-//W3C//DTD SVG 1.1//EN" "http://www.w3.org/Graphics/SVG/1.1/DTD/svg11.dtd">
<svg version="1.1" id="Layer_1" xmlns="http://www.w3.org/2000/svg" xmlns:xlink="http://www.w3.org/1999/xlink" x="0px" y="0px"
	 viewBox="0 0 29.6 18.9" enable-background="new 0 0 29.6 18.9" xml:space="preserve">
<path fill="#4A9A55" enable-background="new    " d="M25.3,9.9C23.1,19,7.9,22.9,1,13.4c2.7,2.5,7.3,2.8,10.2-0.3
	c-1.7,0.3-3-1.4-0.9-2.4C8.5,11,7.4,10,7,9.1c0.4-0.5,0.9-0.7,1.9-0.7C6.8,7.9,6,6.8,5.8,5.6c0.6-0.1,1.3-0.3,1.7-0.2
	C5.7,4.4,5,3,5.1,1.9c3.3,1.2,5.3,2.2,7.1,3.1c0.6,0.3,1.3,0.9,2.1,1.7c1-2.6,2.2-5.3,4.3-6.7c0,0.3-0.2,0.6-0.4,0.8
	c0.6-0.5,1.4-0.9,2.2-1c-0.1,0.6-0.9,0.9-1.5,1.1c0.4-0.1,2.5-1,2.7-0.5c0.3,0.6-1.4,0.9-1.7,1c-0.2,0.1-0.4,0.2-0.6,0.2
	c2.6-0.3,5.1,1.9,5.9,4.6c0.1,0.2,0.1,0.4,0.2,0.6c1,0.4,2.7,0,3.3-0.4c-0.4,1-1.5,1.7-3,1.8c0.7,0.3,2.2,0.5,3.1,0.3
	C28,9.3,27,9.9,25.3,9.9z"/>
</svg>
