<?xml version="1.0" encoding="UTF-8" standalone="no"?>
<svg width="79px" height="122px" viewBox="0 0 79 122" version="1.1" xmlns="http://www.w3.org/2000/svg" xmlns:xlink="http://www.w3.org/1999/xlink" xmlns:sketch="http://www.bohemiancoding.com/sketch/ns">
    <title>Untitled</title>
    <description>Created with Sketch (http://www.bohemiancoding.com/sketch)</description>
    <defs></defs>
    <g id="Page-1" stroke="none" stroke-width="1" fill="none" fill-rule="evenodd" sketch:type="MSPage">
        <path d="M62.5078125,69.984375 C67.3828369,73.5468928 70.792959,77.1562317 72.7382812,80.8125 C74.6836035,84.4687683 75.65625,89.0390351 75.65625,94.5234375 C75.65625,97.9922048 74.8242271,101.332015 73.1601562,104.542969 C71.4960854,107.753922 69.1523589,110.636706 66.1289062,113.191406 C63.1054536,115.746107 59.2031489,117.796867 54.421875,119.34375 C49.6406011,120.890633 44.3437791,121.664062 38.53125,121.664062 C31.5468401,121.664062 25.1484666,120.785165 19.3359375,119.027344 C13.5234084,117.269522 8.84767395,114.679705 5.30859375,111.257812 C1.76951355,107.83592 0,103.921897 0,99.515625 C0,92.4374646 3.62105754,86.1328402 10.8632812,80.6015625 C18.105505,75.0702848 26.8124491,72.3046875 36.984375,72.3046875 L43.5234375,72.3046875 C40.1952959,69.0702963 38.53125,65.6250183 38.53125,61.96875 C38.53125,59.3906121 39.1406189,57.0234483 40.359375,54.8671875 C39.562496,54.960938 38.3906327,55.0078125 36.84375,55.0078125 C28.4062078,55.0078125 21.5156517,52.3828387 16.171875,47.1328125 C10.8280983,41.8827863 8.15625,35.3906637 8.15625,27.65625 C8.15625,22.8281009 9.70310953,18.2695527 12.796875,13.9804688 C15.8906405,9.6913848 19.9687247,6.29298129 25.03125,3.78515625 C30.0937753,1.27733121 35.4140346,0.0234375 40.9921875,0.0234375 L78.6796875,0.0234375 L70.171875,6.140625 L58.1484375,6.140625 C61.9922067,7.59375727 64.9804581,10.3241987 67.1132812,14.3320312 C69.2461044,18.3398638 70.3125,22.8515374 70.3125,27.8671875 C70.3125,35.5078507 66.7734729,42.0468478 59.6953125,47.484375 C56.7421727,49.875012 54.8085983,51.7617118 53.8945312,53.1445312 C52.9804642,54.5273507 52.5234375,56.2499897 52.5234375,58.3125 C52.5234375,59.906258 53.6367076,61.8867069 55.8632812,64.2539062 C58.0898549,66.6211056 60.3046765,68.5312427 62.5078125,69.984375 Z M42.328125,51.140625 C47.1562741,51.3281259 50.9882671,49.218772 53.8242187,44.8125 C56.6601704,40.406228 57.6562542,35.0156569 56.8125,28.640625 C56.015621,22.2655931 53.6015827,16.8281475 49.5703125,12.328125 C45.5390423,7.8281025 41.0625246,5.5078132 36.140625,5.3671875 C31.3124759,5.17968656 27.4804829,7.24216594 24.6445312,11.5546875 C21.8085796,15.8672091 20.8124958,21.1874684 21.65625,27.515625 C22.5000042,33.8906569 24.9491985,39.3866957 29.0039062,44.0039062 C33.058614,48.6211168 37.4999759,50.9999993 42.328125,51.140625 Z M38.53125,115.6875 C48.0937978,115.6875 55.0312284,113.894549 59.34375,110.308594 C63.6562716,106.722638 65.8125,101.953155 65.8125,96 C65.8125,95.203121 65.7187509,93.9140714 65.53125,92.1328125 C65.2499986,91.1484326 64.8164092,90.1757861 64.2304688,89.2148438 C63.6445283,88.2539014 63.1289085,87.468753 62.6835938,86.859375 C62.238279,86.249997 61.3828188,85.4414113 60.1171875,84.4335938 C58.8515562,83.4257762 57.9726587,82.7343769 57.4804688,82.359375 C56.9882788,81.9843731 55.8164155,81.1523502 53.9648438,79.8632812 C52.113272,78.5742123 50.9062528,77.7421894 50.34375,77.3671875 C47.6249864,76.5703085 44.5078301,76.0546887 40.9921875,75.8203125 C36.2109136,75.8203125 31.7226772,76.69921 27.5273438,78.4570312 C23.3320103,80.2148525 19.9687627,82.6171723 17.4375,85.6640625 C14.9062373,88.7109527 13.640625,91.9921699 13.640625,95.5078125 C13.640625,101.085965 15.9960702,105.84373 20.7070312,109.78125 C25.4179923,113.71877 31.3593391,115.6875 38.53125,115.6875 Z" id="googleplus" fill="#000000" sketch:type="MSShapeGroup"></path>
    </g>
</svg>