<?xml version="1.0" encoding="UTF-8" standalone="no"?>
<svg width="152px" height="123px" viewBox="0 0 152 123" version="1.1" xmlns="http://www.w3.org/2000/svg" xmlns:xlink="http://www.w3.org/1999/xlink" xmlns:sketch="http://www.bohemiancoding.com/sketch/ns">
    <title>Untitled 1</title>
    <description>Created with Sketch (http://www.bohemiancoding.com/sketch)</description>
    <defs></defs>
    <g id="Page-1" stroke="none" stroke-width="1" fill="none" fill-rule="evenodd" sketch:type="MSPage">
        <g id="icon-twitter" sketch:type="MSLayerGroup" fill="#000000">
            <g id="Page-1" sketch:type="MSShapeGroup">
                <g id="icon-twitter">
                    <g id="Page-1">
                        <g id="icon-twitter">
                            <g id="Page-1">
                                <path d="M147.769531,2.21754808 C141.832031,5.76562497 135.078125,8.35276442 128.101563,9.75721155 C122.238281,3.84375 114.148437,0 105.167969,0 C87.9492186,0 74.0703127,13.8227163 74.0703127,30.9717548 C74.0703127,33.4110576 74.21875,35.9242788 74.7382814,38.1418269 C48.9101564,36.7373798 26.0507813,25.0582932 10.5390625,6.28305288 C7.94140627,10.8659856 6.30859373,15.5967548 6.30859373,21.3623798 C6.30859373,32.0066105 11.8007813,41.468149 20.2617187,47.0859375 C15.140625,46.9381011 10.390625,45.5336539 6.16015627,43.2421875 L6.16015627,43.6117787 C6.16015627,58.6911056 16.921875,71.2572116 31.171875,74.0661056 C28.5,74.8052885 25.6796875,75.1748797 22.859375,75.1748797 C20.9296875,75.1748797 19,74.9531248 17.0703125,74.5835336 C20.9296875,86.8539661 32.5820313,96.0198319 46.0898436,96.1676682 C35.5507813,104.594351 21.96875,110.877404 7.421875,110.877404 C4.8984375,110.877404 2.44921875,110.729567 0,110.359976 C13.7304687,119.15625 30.28125,123 47.8710936,123 C105.167969,123 136.488281,75.6923077 136.488281,34.6676682 L136.488281,30.6021634 C142.5,26.2409856 147.769531,20.8449519 152,14.4879808 C146.359375,17.0012019 140.421875,18.7013221 134.039063,19.4405048 C140.570313,15.5967548 145.46875,9.46153847 147.769531,2.21754808 L147.769531,2.21754808 Z" id="twitter"></path>
                            </g>
                        </g>
                    </g>
                </g>
            </g>
        </g>
    </g>
</svg>