<?xml version="1.0" encoding="UTF-8" standalone="no"?>
<svg width="2174px" height="2177px" viewBox="0 0 2174 2177" version="1.1" xmlns="http://www.w3.org/2000/svg" xmlns:xlink="http://www.w3.org/1999/xlink" xmlns:sketch="http://www.bohemiancoding.com/sketch/ns">
    <!-- Generator: Sketch 3.0.2 (7799) - http://www.bohemiancoding.com/sketch -->
    <title>Untitled 2</title>
    <description>Created with Sketch.</description>
    <defs></defs>
    <g id="Page-1" stroke="none" stroke-width="1" fill="none" fill-rule="evenodd" sketch:type="MSPage">
        <g id="smartos-stacked-black" sketch:type="MSLayerGroup" fill="#1A1918">
            <path d="M122.795582,1599.24523 C185.147531,1602.29532 210.598326,1597.41184 271.283556,1584.41143 C247.932826,1551.86041 196.76456,1474.79134 176.197251,1443.84037 C131.295848,1526.69296 123.895617,1579.99463 122.795582,1599.24523 L122.795582,1599.24523 Z M160.363423,1717.41559 C266.000057,1861.98677 519.97466,2165.44626 563.726028,2175.96325 C566.526115,2176.52993 570.309567,2176.71327 574.859709,2176.71327 C678.896293,2176.71327 1177.47854,2049.89264 1533.98968,1770.26724 C1454.20385,1584.22809 1341.20032,1406.68921 1170.01164,1198.79938 C816.033912,1534.67654 476.556637,1708.96532 160.363423,1717.41559 L160.363423,1717.41559 Z M1441.75346,1996.02429 C1524.50605,2040.8757 1576.92436,2048.35926 1597.12499,2049.44263 C1600.30842,1986.87401 1595.52494,1962.40658 1582.37453,1900.87132 C1549.74017,1924.12205 1472.65443,1975.42365 1441.75346,1996.02429 L1441.75346,1996.02429 Z M1196.67914,1002.1599 C1532.63964,1356.1043 1706.89508,1695.53157 1715.24534,2011.70812 C1859.76653,1906.22149 2163.35935,1652.33022 2173.84301,1608.36218 C2187.59344,1533.87652 2058.4394,1008.3101 1768.08033,638.215198 C1581.99118,717.951023 1404.5523,831.021223 1196.67914,1002.1599 L1196.67914,1002.1599 Z M1904.18458,592.313763 C1927.48531,624.914782 1978.68691,701.933856 1999.25422,732.984826 C2044.15562,650.048901 2051.57252,596.930574 2052.65589,577.57997 C1990.33727,574.479873 1964.88648,579.313357 1904.18458,592.313763 L1904.18458,592.313763 Z M641.46179,406.574626 C721.214282,592.597106 834.267815,770.135987 1005.4565,978.009149 C1359.36756,642.11532 1698.9115,467.759871 2015.03805,459.509613 C1909.45141,314.838426 1655.46014,11.2956074 1611.74211,0.861948026 C1608.95869,0.395266776 1605.10857,0.111924589 1600.55843,0.111924589 C1496.57184,0.111924589 997.989598,126.915887 641.46179,406.574626 L641.46179,406.574626 Z M578.309817,127.399235 C575.193053,189.95119 579.909867,214.418621 593.076945,275.953878 C625.727965,252.603148 702.79704,201.418215 733.698006,180.834239 C650.845417,135.8495 598.493781,128.432601 578.309817,127.399235 L578.309817,127.399235 Z M460.206126,165.050412 C315.668276,270.60371 12.092123,524.594981 1.62512927,568.363015 C-12.1586348,642.948679 116.995401,1168.5151 407.404476,1538.62667 C593.426956,1458.87418 770.849167,1345.82064 978.755663,1174.7653 C642.778498,820.720901 468.556387,481.293628 460.206126,165.050412 L460.206126,165.050412 Z" id="Fill-1" sketch:type="MSShapeGroup"></path>
        </g>
    </g>
</svg>