<svg xmlns="http://www.w3.org/2000/svg" viewBox="0 0 395 500">
  <path d="M197.5 307.69l197.5 97.9L197.5 500z" fill="#ad9344" fill-rule="evenodd"/>
  <path d="M197.5 0v192.31L0 94.41z" fill="#b2e7ba" fill-rule="evenodd"/>
  <path d="M197.5 307.69l197.5 97.9V94.41L197.5 0z" fill="#194c2a" fill-rule="evenodd"/>
  <path fill="#72bd81" fill-rule="evenodd" d="M112.86 349.65l84.64 41.96v-83.92l-84.64 41.96z"/>
  <path fill="#54aa76" fill-rule="evenodd" d="M0 94.41v125.87l126.96-62.94L0 94.41z"/>
  <path fill="#4eae47" d="M395 220.28l-197.5-97.9-70.54 34.96 70.54 34.97v122.38L395 220.28z"/>
  <path fill="#63b77c" d="M197.5 192.31l-70.54-34.97L0 220.28l190.32 90.97 7.43 3.7-.25-122.64z"/>
  <path d="M197.5 192.31L395 94.41v199.3l-197.5 97.9z" fill="#1f7939" fill-rule="evenodd" opacity=".82" style="isolation:isolate"/>
  <path d="M197.5 391.61l197.5-97.9v31.46l-197.5 94.41z" fill="#0d1117" fill-rule="evenodd" opacity=".46" style="isolation:isolate"/>
  <path fill="#bff1a2" fill-rule="evenodd" d="M0 405.59L197.5 500v-80.42L82.59 364.65 0 405.59z"/>
  <path fill="#3d705a" d="M112.86 349.65L0 293.71v31.47l82.59 39.47 30.27-15z"/>
  <path fill="#bff1a2" fill-rule="evenodd" d="M82.59 364.65l114.91 54.93v-27.97l-84.64-41.96-30.27 15z"/>
  <path fill="#4a8b67" fill-rule="evenodd" d="M0 325.18v80.41l82.59-40.94L0 325.18z"/>
  <path fill="#54aa76" fill-rule="evenodd" d="M190.32 311.25L0 220.28v73.43l112.86 55.94 77.46-38.4z"/>
  <path fill="#91b782" d="M197.5 391.61l-84.64-41.96-30.27 15 114.91 54.93v-27.97z"/>
  <rect x="183.33" y="407.15" width="33.78" transform="rotate(-26.37 42.245 600.892)" fill="#91b782"/>
  <path d="M201.35 190.4l-3.85 1.91L0 94.41l3.92-1.88z" fill="#348e45" fill-rule="evenodd"/>
  <path d="M197.5 391.61v3.49L0 297.2v-3.49z" fill="#3d705a" fill-rule="evenodd"/>
  <path d="M197.5 391.61v3.49L395 297.2v-3.49z" fill="#133121" fill-rule="evenodd"/>
</svg>
