<svg width="2174" height="2177" xmlns="http://www.w3.org/2000/svg" xmlns:sketch="http://www.bohemiancoding.com/sketch/ns"><title>Untitled 2</title><path d="M122.796 1599.245c62.352 3.05 87.803-1.833 148.488-14.834-23.351-32.551-74.519-109.62-95.086-140.571-44.901 82.853-52.302 136.154-53.402 155.405zm37.568 118.17c105.637 144.571 359.611 448.031 403.363 458.548 2.8.567 6.584.75 11.134.75 104.037 0 602.619-126.821 959.13-406.446-79.786-186.039-192.789-363.578-363.978-571.468-353.978 335.877-693.455 510.166-1009.648 518.616zm1281.39 278.609c82.753 44.851 135.171 52.335 155.372 53.418 3.183-62.569-1.6-87.036-14.75-148.571-32.634 23.251-109.72 74.552-140.621 95.153zm-245.074-993.864c335.961 353.944 510.216 693.372 518.566 1009.548 144.521-105.487 448.114-359.378 458.598-403.346 13.75-74.486-115.404-600.052-405.763-970.147-186.089 79.736-363.528 192.806-571.401 363.945zm707.505-409.846c23.301 32.601 74.502 109.62 95.07 140.671 44.901-82.936 52.318-136.054 53.402-155.405-62.319-3.1-87.769 1.733-148.471 14.734zm-1262.723-185.739c79.752 186.022 192.806 363.561 363.995 571.435 353.911-335.894 693.455-510.249 1009.582-518.5-105.587-144.671-359.578-448.214-403.296-458.648-2.783-.467-6.634-.75-11.184-.75-103.987 0-602.569 126.804-959.097 406.463zm-63.152-279.175c-3.117 62.552 1.6 87.019 14.767 148.555 32.651-23.351 109.72-74.536 140.621-95.12-82.853-44.985-135.204-52.402-155.388-53.435zm-118.104 37.651c-144.538 105.553-448.114 359.545-458.581 403.313-13.784 74.586 115.37 600.152 405.779 970.264 186.022-79.752 363.445-192.806 571.351-363.861-335.977-354.044-510.199-693.472-518.55-1009.715z" sketch:type="MSShapeGroup" fill="#1A1918"/></svg>