<?xml version="1.0" encoding="UTF-8" standalone="no"?>
<svg width="256px" height="300px" viewBox="0 0 256 300" version="1.1" xmlns="http://www.w3.org/2000/svg" xmlns:xlink="http://www.w3.org/1999/xlink" xmlns:sketch="http://www.bohemiancoding.com/sketch/ns">
    <!-- Generator: Sketch 3.0.2 (7799) - http://www.bohemiancoding.com/sketch -->
    <title>Untitled 2</title>
    <description>Created with Sketch.</description>
    <defs></defs>
    <g id="Page-1" stroke="none" stroke-width="1" fill="none" fill-rule="evenodd" sketch:type="MSPage">
        <g id="Group" sketch:type="MSLayerGroup" fill="#000000">
            <path d="M123.51751,73.5099338 C123.51751,74.5033113 122.521401,74.5033113 122.521401,74.5033113 L121.525292,74.5033113 C120.529183,74.5033113 120.529183,73.5099338 119.533074,72.5165563 C119.533074,72.5165563 118.536965,71.5231788 118.536965,70.5298013 C118.536965,69.5364238 118.536965,69.5364238 119.533074,69.5364238 L121.525292,70.5298013 C122.521401,71.5231788 123.51751,72.5165563 123.51751,73.5099338 M105.587549,63.5761589 C105.587549,58.6092715 103.595331,55.6291391 100.607004,55.6291391 C100.607004,55.6291391 100.607004,56.6225166 99.6108949,56.6225166 L99.6108949,58.6092715 L102.599222,58.6092715 C102.599222,60.5960265 103.595331,61.589404 103.595331,63.5761589 L105.587549,63.5761589 M140.451362,58.6092715 C142.44358,58.6092715 143.439689,60.5960265 144.435798,63.5761589 L146.428016,63.5761589 C145.431907,62.5827815 145.431907,61.589404 145.431907,60.5960265 C145.431907,59.602649 145.431907,58.6092715 144.435798,57.615894 C143.439689,56.6225166 142.44358,55.6291391 141.447471,55.6291391 C141.447471,55.6291391 140.451362,56.6225166 139.455253,56.6225166 C139.455253,57.615894 140.451362,57.615894 140.451362,58.6092715 M110.568093,74.5033113 C109.571984,74.5033113 109.571984,74.5033113 109.571984,73.5099338 C109.571984,72.5165563 109.571984,71.5231788 110.568093,70.5298013 C112.560311,70.5298013 113.55642,69.5364238 113.55642,69.5364238 C114.552529,69.5364238 114.552529,70.5298013 114.552529,70.5298013 C114.552529,71.5231788 113.55642,72.5165563 111.564202,74.5033113 L110.568093,74.5033113 M99.6108949,73.5099338 C95.6264591,71.5231788 94.6303502,68.5430464 94.6303502,63.5761589 C94.6303502,60.5960265 94.6303502,58.6092715 96.6225681,56.6225166 C97.618677,54.6357616 99.6108949,53.6423841 101.603113,53.6423841 C103.595331,53.6423841 104.59144,54.6357616 106.583658,56.6225166 C107.579767,59.602649 108.575875,62.5827815 108.575875,65.5629139 L108.575875,66.5562914 L108.575875,67.5496689 L109.571984,67.5496689 L109.571984,66.5562914 C110.568093,66.5562914 110.568093,64.5695364 110.568093,60.5960265 C110.568093,57.615894 110.568093,54.6357616 108.575875,51.6556291 C106.583658,48.6754967 104.59144,46.6887417 100.607004,46.6887417 C97.618677,46.6887417 94.6303502,48.6754967 93.6342412,51.6556291 C91.6420233,55.6291391 91.2435798,58.6092715 91.2435798,63.5761589 C91.2435798,67.5496689 92.6381323,71.5231788 96.6225681,75.4966887 C97.618677,74.5033113 98.614786,74.5033113 99.6108949,73.5099338 M224.124514,213.576159 C225.120623,213.576159 225.120623,213.178808 225.120623,212.284768 C225.120623,210.099338 224.124514,207.516556 221.136187,204.635762 C218.14786,201.655629 213.167315,199.768212 207.190661,198.97351 C206.194553,198.874172 205.198444,198.874172 205.198444,198.874172 C204.202335,198.675497 204.202335,198.675497 203.206226,198.675497 C202.210117,198.576159 200.217899,198.377483 199.22179,198.178808 C202.210117,188.940397 203.206226,180.794702 203.206226,173.642384 C203.206226,163.708609 201.214008,156.754967 197.229572,150.794702 C193.245136,144.834437 189.2607,141.854305 184.280156,140.860927 C183.284047,141.854305 183.284047,141.854305 183.284047,142.847682 C188.264591,144.834437 193.245136,148.807947 196.233463,154.768212 C199.22179,161.721854 200.217899,167.682119 200.217899,174.635762 C200.217899,180.198675 199.22179,188.443709 195.237354,198.97351 C191.252918,200.562914 187.268482,204.238411 184.280156,210 C184.280156,210.89404 184.280156,211.390728 185.276265,211.390728 C185.276265,211.390728 186.272374,210.496689 187.268482,208.807947 C189.2607,207.119205 190.256809,205.430464 192.249027,203.741722 C195.237354,202.05298 197.229572,201.15894 200.217899,201.15894 C205.198444,201.15894 210.178988,201.854305 213.167315,203.245033 C217.151751,204.536424 219.143969,205.927152 220.140078,207.516556 C221.136187,209.006623 222.132296,210.397351 223.128405,211.688742 C223.128405,212.980132 224.124514,213.576159 224.124514,213.576159 M132.48249,69.5364238 C131.486381,68.5430464 131.486381,66.5562914 131.486381,64.5695364 C131.486381,60.5960265 131.486381,58.6092715 133.478599,55.6291391 C135.470817,53.6423841 137.463035,52.6490066 139.455253,52.6490066 C142.44358,52.6490066 144.435798,54.6357616 146.428016,56.6225166 C147.424125,59.602649 148.420233,61.589404 148.420233,64.5695364 C148.420233,69.5364238 146.428016,72.5165563 142.44358,73.5099338 C142.44358,73.5099338 143.439689,74.5033113 144.435798,74.5033113 C146.428016,74.5033113 147.424125,75.4966887 149.416342,76.4900662 C150.412451,70.5298013 151.40856,66.5562914 151.40856,61.589404 C151.40856,55.6291391 150.412451,51.6556291 148.420233,48.6754967 C145.431907,45.6953642 142.44358,44.7019868 138.459144,44.7019868 C135.470817,44.7019868 132.48249,45.6953642 129.494163,47.6821192 C127.501946,50.6622517 126.505837,52.6490066 126.505837,55.6291391 C126.505837,60.5960265 127.501946,64.5695364 129.494163,68.5430464 C130.490272,68.5430464 131.486381,69.5364238 132.48249,69.5364238 M144.435798,85.4304636 C131.486381,94.3708609 121.525292,98.3443709 113.55642,98.3443709 C106.583658,98.3443709 99.6108949,95.3642384 93.6342412,90.397351 C94.6303502,92.384106 95.6264591,94.3708609 96.6225681,95.3642384 L102.599222,101.324503 C106.583658,105.298013 111.564202,107.284768 116.544747,107.284768 C123.51751,107.284768 131.486381,103.311258 141.447471,96.3576159 L150.412451,90.397351 C152.404669,88.410596 154.396887,86.4238411 154.396887,83.4437086 C154.396887,82.4503311 154.396887,81.4569536 153.400778,81.4569536 C152.404669,79.4701987 147.424125,76.4900662 137.463035,73.5099338 C128.498054,69.5364238 121.525292,67.5496689 117.540856,67.5496689 C114.552529,67.5496689 109.571984,69.5364238 102.599222,73.5099338 C96.6225681,77.4834437 92.6381323,81.4569536 92.6381323,85.4304636 C92.6381323,85.4304636 93.6342412,86.4238411 94.6303502,88.410596 C100.607004,93.3774834 106.583658,96.3576159 112.560311,96.3576159 C120.529183,96.3576159 130.490272,92.384106 143.439689,82.4503311 L143.439689,84.4370861 C144.435798,84.4370861 144.435798,85.4304636 144.435798,85.4304636 M167.346304,286.092715 C171.330739,293.562914 178.303502,297.317881 186.272374,297.317881 C188.264591,297.317881 190.256809,297.019868 192.249027,296.423841 C194.241245,296.02649 196.233463,295.331126 197.229572,294.536424 C198.225681,293.84106 199.22179,293.145695 200.217899,292.350993 C202.210117,291.655629 202.210117,291.15894 203.206226,290.662252 L220.140078,276.059603 C224.124514,272.890728 228.108949,270.119205 233.089494,267.715232 C237.07393,265.331126 241.058366,263.741722 243.050584,262.847682 C246.038911,262.05298 248.031128,260.860927 250.023346,259.271523 C251.019455,257.781457 252.015564,255.89404 252.015564,253.509934 C252.015564,250.629139 250.023346,248.443709 248.031128,246.854305 C246.038911,245.264901 244.046693,244.172185 242.054475,243.476821 C240.062257,242.781457 238.070039,241.192053 235.081712,238.509934 C233.089494,235.927152 231.097276,232.350993 230.101167,227.682119 L229.105058,221.92053 C228.108949,219.238411 228.108949,217.251656 227.11284,216.15894 C227.11284,215.860927 227.11284,215.761589 226.116732,215.761589 C225.120623,215.761589 223.128405,216.655629 222.132296,218.344371 C220.140078,220.033113 218.14786,221.92053 216.155642,223.907285 C215.159533,225.89404 212.171206,227.682119 210.178988,229.370861 C207.190661,231.059603 204.202335,231.953642 202.210117,231.953642 C194.241245,231.953642 190.256809,229.768212 187.268482,225.496689 C185.276265,222.317881 184.280156,218.642384 183.284047,214.470199 C181.291829,212.781457 180.29572,211.887417 178.303502,211.887417 C173.322957,211.887417 171.330739,217.05298 171.330739,227.483444 L171.330739,230.761589 L171.330739,242.284768 L171.330739,251.125828 L171.330739,255.397351 L171.330739,258.377483 C171.330739,259.271523 170.33463,261.258278 170.33463,264.337748 C169.338521,267.417219 169.338521,270.913907 169.338521,274.86755 L167.346304,285.89404 L167.346304,286.062914 M22.9105058,280.807947 C32.1743191,282.15894 42.8326848,285.049669 54.8856031,289.460265 C66.9385214,293.831126 74.3097276,296.115894 76.9992218,296.115894 C83.9719844,296.115894 89.7494163,293.036424 94.5307393,287.086093 C95.5268482,285.15894 95.5268482,282.89404 95.5268482,280.291391 C95.5268482,270.903974 89.8490272,259.033113 78.4933852,244.629139 L71.7198444,235.589404 C70.3252918,233.701987 68.6319066,230.821192 66.4404669,226.94702 C64.3486381,223.072848 62.4560311,220.092715 60.9618677,218.006623 C59.6669261,215.721854 57.5750973,213.437086 54.8856031,211.152318 C52.2957198,208.86755 49.307393,207.377483 46.0202335,206.582781 C41.8365759,207.377483 38.9478599,208.768212 37.5533074,210.655629 C36.1587549,212.543046 35.3618677,214.629139 35.1626459,216.81457 C34.8638132,218.900662 34.2661479,220.291391 33.2700389,220.986755 C32.27393,221.582781 30.5805447,222.07947 28.2894942,222.576159 C27.7914397,222.576159 26.8949416,222.576159 25.6,222.675497 L22.9105058,222.675497 C17.6311284,222.675497 14.0451362,223.271523 12.1525292,224.264901 C9.66225681,227.145695 8.36731518,230.423841 8.36731518,233.900662 C8.36731518,235.490066 8.76575875,238.172185 9.56264591,241.94702 C10.3595331,245.622517 10.7579767,248.602649 10.7579767,250.688742 C10.7579767,254.761589 9.56264591,258.834437 7.07237354,262.907285 C4.58210117,267.178808 3.28715953,270.357616 3.28715953,272.622517 C4.28326848,276.476821 10.8575875,279.188742 22.9105058,280.778146 M56.0809339,190.480132 C56.0809339,183.625828 57.87393,176.076159 61.5595331,167.135762 C65.1455253,158.195364 68.7315175,152.235099 72.2178988,148.261589 C72.018677,147.268212 71.5206226,147.268212 70.7237354,147.268212 L69.7276265,146.274834 C66.8389105,149.254967 63.3525292,156.208609 59.1688716,166.142384 C54.985214,175.082781 52.7937743,183.327815 52.7937743,189.387417 C52.7937743,193.857616 53.8894942,197.731788 55.8817121,201.109272 C58.0731518,204.387417 63.3525292,209.155629 71.7198444,215.215232 L82.2785992,222.069536 C93.5346304,231.804636 99.511284,238.559603 99.511284,242.533113 C99.511284,244.619205 98.5151751,246.705298 95.5268482,248.990066 C93.5346304,251.374172 90.8451362,252.566225 88.5540856,252.566225 C88.3548638,252.566225 88.2552529,252.764901 88.2552529,253.261589 C88.2552529,253.360927 89.2513619,255.347682 91.3431907,259.221854 C95.5268482,264.884106 104.491829,267.665563 116.445136,267.665563 C138.359533,267.665563 155.293385,258.725166 168.242802,240.844371 C168.242802,235.877483 168.242802,232.798013 167.246693,231.506623 L167.246693,227.831126 C167.246693,221.374172 168.242802,216.506623 170.235019,213.327815 C172.227237,210.149007 174.219455,208.65894 177.207782,208.65894 C179.2,208.65894 181.192218,209.354305 183.184436,210.844371 C184.180545,203.195364 184.180545,196.539735 184.180545,190.57947 C184.180545,181.539735 184.180545,174.089404 182.188327,167.135762 C181.192218,161.175497 179.2,156.208609 177.207782,152.235099 C175.215564,149.254967 173.223346,146.274834 171.231128,143.294702 C169.238911,140.31457 168.242802,137.334437 166.250584,134.354305 C165.254475,130.380795 164.258366,127.400662 164.258366,122.433775 C161.270039,117.466887 159.277821,112.5 156.289494,107.533113 C154.297276,102.566225 152.305058,97.5993377 150.31284,93.6258278 L141.34786,100.57947 C131.38677,107.533113 123.417899,110.513245 116.445136,110.513245 C110.468482,110.513245 105.487938,109.519868 102.499611,105.546358 L96.5229572,100.57947 C96.5229572,103.559603 95.5268482,107.533113 93.5346304,111.506623 L87.259144,123.427152 C84.4700389,130.380795 82.9758755,134.354305 82.6770428,137.334437 C82.2785992,139.321192 81.9797665,141.307947 81.7805447,141.307947 L74.3097276,156.208609 C66.2412451,171.109272 62.1571984,184.917219 62.1571984,196.34106 C62.1571984,198.625828 62.3564202,201.009934 62.7548638,203.39404 C58.2723735,200.31457 56.0809339,196.043046 56.0809339,190.480132 M127.402335,284.453642 C114.452918,284.453642 104.491829,286.201987 97.5190661,289.668874 L97.5190661,289.370861 C92.5385214,295.331126 86.9603113,298.410596 79.1906615,298.410596 C74.3097276,298.410596 66.6396887,296.523179 56.2801556,292.748344 C45.8210117,289.172185 36.5571984,286.430464 28.488716,284.622517 C27.6918288,284.39404 25.8988327,284.056291 23.0101167,283.599338 C20.2210117,283.152318 17.6311284,282.695364 15.3400778,282.238411 C13.248249,281.791391 10.8575875,281.115894 8.26770428,280.201987 C5.77743191,279.417219 3.78521401,278.39404 2.29105058,277.152318 C0.916420233,275.900662 0.239066148,274.490066 0.239066148,272.910596 C0.239066148,271.321192 0.577743191,269.622517 1.25509728,267.81457 C1.892607,266.721854 2.58988327,265.629139 3.28715953,264.635762 C3.9844358,263.543046 4.58210117,262.549669 4.98054475,261.556291 C5.57821012,260.662252 5.9766537,259.768212 6.37509728,258.774834 C6.77354086,257.880795 7.17198444,256.986755 7.37120623,255.89404 C7.57042802,254.900662 7.76964981,253.907285 7.76964981,252.913907 C7.76964981,251.92053 7.37120623,248.940397 6.57431907,243.675497 C5.77743191,238.509934 5.37898833,235.231788 5.37898833,233.84106 C5.37898833,229.470199 6.37509728,225.993377 8.56653696,223.509934 C10.7579767,221.02649 12.8498054,219.735099 15.0412451,219.735099 L26.4964981,219.735099 C27.3929961,219.735099 28.7875486,219.238411 30.8793774,218.046358 C31.5766537,216.456954 32.1743191,215.165563 32.5727626,213.97351 C33.0708171,212.781457 33.2700389,211.887417 33.4692607,211.490066 C33.6684825,210.89404 33.8677043,210.298013 34.0669261,209.801325 C34.4653696,209.10596 34.9634241,208.311258 35.6607004,207.516556 C34.8638132,206.523179 34.4653696,205.231788 34.4653696,203.642384 C34.4653696,202.549669 34.4653696,201.556291 34.6645914,200.960265 C34.6645914,197.384106 36.3579767,192.317881 39.9439689,185.662252 L43.4303502,179.403974 C46.3190661,174.039735 48.5105058,170.066225 50.1042802,166.092715 C51.7976654,162.119205 53.5906615,156.15894 55.5828794,148.211921 C57.1766537,141.258278 60.9618677,134.304636 66.9385214,127.350993 L74.4093385,118.410596 C79.5891051,112.450331 82.9758755,107.483444 84.8684825,103.509934 C86.7610895,99.5364238 87.7571984,94.5695364 87.7571984,90.5960265 C87.7571984,88.6092715 87.259144,82.6490066 86.1634241,72.7152318 C85.1673152,62.781457 84.6692607,52.8476821 84.6692607,43.9072848 C84.6692607,36.9536424 85.2669261,31.986755 86.5618677,27.0198675 C87.8568093,22.0529801 90.1478599,17.0860927 93.5346304,13.1125828 C96.5229572,9.13907285 100.507393,5.16556291 106.484047,3.17880795 C112.4607,1.19205298 119.433463,0.198675497 127.402335,0.198675497 C130.390661,0.198675497 133.378988,0.198675497 136.367315,1.19205298 C139.355642,1.19205298 143.340078,2.18543046 148.320623,4.17218543 C152.305058,6.1589404 156.289494,8.14569536 159.277821,11.1258278 C163.262257,14.1059603 166.250584,19.0728477 169.238911,24.0397351 C171.231128,30 173.223346,35.9602649 174.219455,43.9072848 C175.215564,48.8741722 175.215564,53.8410596 176.211673,60.794702 C176.211673,66.7549669 177.207782,70.7284768 177.207782,73.7086093 C178.203891,76.6887417 178.203891,80.6622517 179.2,85.6291391 C180.196109,89.602649 181.192218,93.5761589 183.184436,96.5562914 C185.176654,100.529801 187.168872,104.503311 190.157198,108.476821 C193.145525,113.443709 197.129961,118.410596 201.114397,124.370861 C210.079377,134.304636 217.05214,145.231788 221.036576,156.15894 C226.017121,166.092715 229.005447,179.006623 229.005447,192.81457 C229.005447,199.668874 228.009339,206.324503 226.017121,212.781457 C228.009339,212.781457 229.005447,213.576159 230.001556,214.966887 C230.997665,216.357616 231.993774,219.337748 232.989883,224.006623 L233.985992,231.357616 C234.982101,233.543046 235.97821,235.629139 238.966537,237.417219 C240.958755,239.205298 242.950973,240.695364 245.9393,241.887417 C247.931518,242.880795 250.919844,244.271523 252.912062,246.059603 C254.90428,248.046358 255.900389,250.13245 255.900389,252.317881 C255.900389,255.695364 254.90428,258.178808 252.912062,259.966887 C250.919844,261.953642 248.927626,263.344371 245.9393,264.238411 C243.947082,265.231788 239.962646,267.218543 233.985992,270.019868 C229.005447,272.960265 224.024903,276.52649 219.044358,280.748344 L209.083268,289.201987 C205.098833,293.076159 201.114397,295.857616 198.12607,297.546358 C195.137743,299.334437 191.153307,300.228477 187.168872,300.228477 L180.196109,299.433775 C172.227237,297.347682 167.246693,293.374172 164.258366,287.31457 C148.320623,285.387417 135.371206,284.433775 127.402335,284.433775" id="Shape" sketch:type="MSShapeGroup"></path>
        </g>
    </g>
</svg>