<?xml version="1.0" encoding="UTF-8" standalone="no"?>
<svg width="127px" height="165px" viewBox="0 0 127 165" version="1.1" xmlns="http://www.w3.org/2000/svg" xmlns:xlink="http://www.w3.org/1999/xlink" xmlns:sketch="http://www.bohemiancoding.com/sketch/ns">
    <!-- Generator: Sketch 3.0.2 (7799) - http://www.bohemiancoding.com/sketch -->
    <title>Untitled 2</title>
    <description>Created with Sketch.</description>
    <defs></defs>
    <g id="Page-1" stroke="none" stroke-width="1" fill="none" fill-rule="evenodd" sketch:type="MSPage">
        <g id="PhoenixRGB" sketch:type="MSLayerGroup" fill="#000000">
            <g id="Phoenix" sketch:type="MSShapeGroup">
                <path d="M33.917,40.078 C33.463,38.716 32.671,37.429 31.901,36.229 C30.902,34.673 29.795,33.173 28.567,31.791 C27.906,31.043 27,29.922 26.011,29.549 C25.829,29.482 25.699,29.412 25.501,29.416 C25.39,29.384 25.295,29.376 25.212,29.383 C24.851,29.288 20.779,28.284 18.951,27.769 C16.063,26.919 13.28,25.816 10.628,24.393 C9.491,23.782 8.37,23.132 7.317,22.383 C7.055,22.198 6.799,22.008 6.549,21.811 C5.6,20.535 4.63,19.107 3.42,18.079 C3.336,18.034 3.252,17.99 3.168,17.944 C3.356,18.981 3.967,19.942 4.5,20.836 C5.824,23.064 7.37,25.163 8.934,27.228 C10.414,29.183 11.991,31.109 13.874,32.693 C15.445,34.014 17.234,35.057 19.058,35.989 C21.099,37.03 23.129,38.101 25.27,38.927 C27.928,39.954 30.632,40.767 33.45,41.2 C33.329,41.18 33.206,41.161 33.084,41.142 C33.237,41.153 33.384,41.19 33.524,41.251 C34.369,41.549 34.027,40.409 33.917,40.078 L33.917,40.078 Z" id="Shape"></path>
                <path d="M26.676,30.012 C26.364,28.611 25.701,27.25 25.053,25.981 C24.211,24.335 23.256,22.735 22.164,21.24 C21.66,20.521 21.092,19.854 20.464,19.239 C20.252,19.082 20.039,18.925 19.828,18.767 C17.881,18.257 15.812,18.471 13.857,17.955 C12.161,17.508 10.553,16.826 9.045,15.942 C8.184,15.383 7.347,14.783 6.566,14.118 C6.378,13.958 6.192,13.798 6.008,13.632 C5.979,13.604 5.949,13.575 5.92,13.546 C5.755,13.381 5.6,13.207 5.439,13.038 C5.419,13.012 5.402,12.984 5.382,12.957 C4.83,12.189 4.291,11.4 3.686,10.676 C2.643,9.428 1.532,7.899 0.08,7.084 C0.164,7.133 0.247,7.182 0.33,7.23 C0.237,7.133 0.129,7.062 0,7.006 C0.004,7.112 0.034,7.213 0.057,7.315 C0.053,7.308 0.049,7.302 0.045,7.295 C0.051,7.313 0.058,7.331 0.063,7.35 C0.088,7.453 0.124,7.553 0.167,7.65 C0.624,9.09 1.173,10.494 1.836,11.849 C2.255,12.647 2.676,13.445 3.099,14.242 C3.184,14.403 3.276,14.56 3.367,14.719 C3.84,15.535 4.294,16.365 4.819,17.148 C6.128,19.1 7.496,20.937 9.082,22.671 C10.607,24.338 12.311,25.923 14.195,27.179 C15.994,28.374 17.902,29.485 19.97,30.136 C21.97,30.766 24.095,30.824 26.158,31.152 C26.531,31.332 26.734,31.214 26.765,30.8 C26.735,30.537 26.707,30.274 26.676,30.012 L26.676,30.012 Z" id="Shape"></path>
                <path d="M26.739,30.291 C26.712,28.854 26.34,27.391 25.961,26.016 C25.472,24.235 24.862,22.472 24.103,20.787 C23.693,19.877 23.165,18.535 22.331,17.886 C22.179,17.767 22.073,17.661 21.885,17.607 C21.787,17.544 21.698,17.506 21.616,17.49 C21.301,17.292 20.987,17.091 20.665,16.901 C20.767,16.96 20.866,17.019 20.965,17.078 C19.369,16.064 17.725,15.125 16.139,14.093 C13.629,12.421 11.295,10.533 9.184,8.379 C8.281,7.459 7.404,6.504 6.622,5.477 C6.429,5.221 6.24,4.963 6.06,4.7 C5.534,3.197 5.032,1.545 4.184,0.203 C4.118,0.136 4.051,0.067 3.984,0 C3.855,1.045 4.15,2.146 4.394,3.156 C4.997,5.678 5.844,8.142 6.723,10.579 C7.553,12.886 8.484,15.194 9.81,17.267 C10.916,18.997 12.313,20.525 13.776,21.957 C15.415,23.56 17.033,25.186 18.832,26.614 C21.062,28.386 23.401,29.967 25.962,31.219 C25.851,31.165 25.741,31.111 25.63,31.056 C25.773,31.113 25.901,31.192 26.016,31.292 C26.732,31.829 26.746,30.639 26.739,30.291 L26.739,30.291 Z" id="Shape"></path>
                <path d="M41.486,48.668 C40.891,47.359 39.964,46.164 39.067,45.057 C37.906,43.619 36.64,42.249 35.266,41.011 C34.622,40.41 33.931,39.875 33.189,39.403 C32.949,39.293 32.71,39.182 32.47,39.073 C30.459,38.974 28.48,39.609 26.459,39.507 C24.71,39.418 22.999,39.083 21.341,38.529 C20.382,38.158 19.438,37.742 18.536,37.252 C18.318,37.133 18.101,37.013 17.887,36.889 C17.853,36.868 17.82,36.847 17.786,36.826 C17.592,36.699 17.405,36.561 17.214,36.43 C17.189,36.407 17.165,36.383 17.14,36.36 C16.439,35.723 15.75,35.061 15.007,34.476 C13.73,33.47 12.329,32.204 10.74,31.704 C10.832,31.735 10.923,31.766 11.014,31.797 C10.903,31.72 10.783,31.672 10.646,31.644 C10.671,31.748 10.721,31.837 10.764,31.932 C10.759,31.927 10.754,31.923 10.75,31.918 C10.758,31.933 10.768,31.946 10.775,31.96 C10.823,32.062 10.88,32.157 10.948,32.247 C11.69,33.559 12.513,34.817 13.439,36.006 C14.012,36.7 14.589,37.395 15.166,38.088 C15.283,38.227 15.404,38.362 15.526,38.498 C16.156,39.2 16.772,39.918 17.447,40.576 C19.129,42.217 20.845,43.733 22.756,45.103 C24.593,46.421 26.584,47.623 28.688,48.462 C30.693,49.263 32.789,49.957 34.948,50.168 C37.035,50.372 39.128,49.992 41.212,49.889 C41.614,49.988 41.788,49.831 41.735,49.42 C41.652,49.169 41.57,48.918 41.486,48.668 L41.486,48.668 Z" id="Shape"></path>
                <path d="M50.881,58.44 C50.163,57.196 49.13,56.093 48.135,55.073 C46.846,53.75 45.459,52.501 43.981,51.391 C43.182,50.792 42.071,49.874 41.027,49.707 C40.837,49.677 40.694,49.636 40.502,49.679 C40.386,49.67 40.291,49.681 40.212,49.705 C39.839,49.684 39.466,49.659 39.093,49.649 C39.21,49.652 39.325,49.656 39.442,49.659 C37.555,49.543 35.667,49.515 33.782,49.379 C30.774,49.127 27.816,48.603 24.924,47.736 C23.69,47.366 22.459,46.955 21.278,46.431 C20.986,46.302 20.697,46.167 20.412,46.025 C19.226,44.963 17.989,43.759 16.598,42.995 C16.508,42.968 16.416,42.94 16.327,42.913 C16.718,43.892 17.509,44.71 18.21,45.479 C19.954,47.396 21.89,49.143 23.835,50.852 C25.677,52.47 27.606,54.041 29.771,55.216 C31.574,56.195 33.535,56.86 35.509,57.405 C37.716,58.017 39.92,58.66 42.184,59.042 C44.994,59.515 47.806,59.769 50.653,59.629 C50.529,59.635 50.406,59.641 50.283,59.647 C50.435,59.627 50.586,59.635 50.735,59.667 C51.619,59.79 51.055,58.742 50.881,58.44 L50.881,58.44 Z" id="Shape"></path>
                <path d="M28.965,57.35 C29.313,57.508 29.653,57.688 30.004,57.842 C30.662,58.133 31.514,58.439 31.26,58.359 C34.628,59.411 38.237,59.48 41.682,58.771 C41.526,58.804 41.371,58.836 41.217,58.87 C42.875,58.512 44.488,57.992 46.076,57.396 C46.82,57.118 47.727,57.852 48.264,58.234 C49.651,59.218 50.901,60.415 52.063,61.649 C53.228,62.883 54.35,64.202 55.251,65.643 C55.264,65.663 56.553,67.671 55.959,67.876 C51.602,69.368 47.065,70.05 42.554,68.815 C40.961,68.379 39.399,67.747 37.928,66.999 C35.496,65.762 33.385,64.073 31.348,62.272 C29.927,61.015 28.496,59.638 27.324,58.144 C26.688,57.335 25.983,56.476 25.816,55.439 C25.835,55.546 25.853,55.653 25.872,55.76 C25.831,55.531 25.78,55.376 25.786,55.167 C25.792,54.992 27.762,56.442 27.596,56.312 C28.932,57.359 28.744,57.25 28.965,57.35 L28.965,57.35 Z" id="Shape"></path>
                <path d="M37.917,69.798 C38.295,69.872 38.664,69.968 39.043,70.036 C39.75,70.167 40.648,70.268 40.384,70.249 C43.905,70.494 47.43,69.728 50.619,68.243 C50.474,68.31 50.332,68.378 50.188,68.446 C51.72,67.712 53.169,66.835 54.578,65.887 C55.237,65.445 56.289,65.951 56.898,66.198 C58.474,66.835 59.966,67.712 61.385,68.642 C62.802,69.575 64.198,70.598 65.408,71.791 C65.426,71.809 67.144,73.465 66.613,73.799 C62.718,76.26 58.463,77.973 53.787,77.813 C52.138,77.756 50.47,77.502 48.868,77.115 C46.216,76.473 43.771,75.317 41.372,74.036 C39.7,73.142 37.991,72.132 36.503,70.95 C35.698,70.311 34.814,69.638 34.412,68.666 C34.454,68.767 34.497,68.866 34.541,68.966 C34.447,68.753 34.362,68.614 34.319,68.409 C34.285,68.237 36.536,69.194 36.344,69.106 C37.887,69.815 37.68,69.752 37.917,69.798 L37.917,69.798 Z" id="Shape"></path>
                <path d="M74.721,78.042 C73.532,77.236 72.121,76.696 70.782,76.212 C69.042,75.583 67.251,75.066 65.436,74.714 C64.457,74.523 63.055,74.181 62.043,74.487 C61.858,74.542 61.711,74.569 61.559,74.69 C61.451,74.733 61.37,74.784 61.309,74.84 C60.964,74.984 60.619,75.124 60.278,75.278 C60.383,75.23 60.49,75.183 60.596,75.136 C58.848,75.853 57.135,76.653 55.381,77.353 C52.565,78.439 49.675,79.257 46.693,79.742 C45.42,79.947 44.134,80.113 42.843,80.158 C42.526,80.17 42.208,80.175 41.891,80.172 C40.359,79.734 38.719,79.19 37.132,79.11 C37.038,79.126 36.944,79.139 36.851,79.155 C37.63,79.864 38.699,80.257 39.665,80.642 C42.071,81.606 44.575,82.333 47.071,83.022 C49.434,83.673 51.857,84.246 54.315,84.359 C56.366,84.453 58.42,84.195 60.435,83.826 C62.688,83.412 64.952,83.028 67.155,82.382 C69.889,81.581 72.53,80.584 75.03,79.214 C74.923,79.275 74.813,79.333 74.706,79.393 C74.835,79.31 74.972,79.249 75.12,79.213 C75.973,78.936 75.01,78.237 74.721,78.042 L74.721,78.042 Z" id="Shape"></path>
                <path d="M52.396,88.068 C52.771,87.994 53.151,87.943 53.527,87.865 C54.232,87.719 55.103,87.474 54.849,87.556 C58.203,86.458 61.181,84.419 63.576,81.842 C63.469,81.959 63.361,82.074 63.254,82.192 C64.397,80.936 65.411,79.579 66.358,78.171 C66.801,77.513 67.967,77.584 68.626,77.584 C70.325,77.581 72.038,77.831 73.702,78.159 C75.366,78.489 77.044,78.911 78.616,79.561 C78.637,79.571 80.852,80.457 80.487,80.969 C77.805,84.714 74.508,87.902 70.118,89.517 C68.569,90.085 66.929,90.476 65.298,90.72 C62.598,91.126 59.899,90.974 57.194,90.691 C55.307,90.494 53.344,90.203 51.52,89.666 C50.534,89.377 49.46,89.088 48.723,88.338 C48.801,88.416 48.877,88.49 48.955,88.568 C48.789,88.406 48.656,88.31 48.541,88.134 C48.443,87.989 50.89,88.027 50.679,88.017 C52.375,88.096 52.158,88.115 52.396,88.068 L52.396,88.068 Z" id="Shape"></path>
                <path d="M58.516,95.67 C58.881,95.553 59.252,95.457 59.616,95.334 C60.3,95.107 61.136,94.762 60.893,94.873 C64.094,93.389 66.811,91.014 68.886,88.174 C68.794,88.303 68.702,88.43 68.609,88.559 C69.595,87.178 70.441,85.709 71.216,84.2 C71.579,83.495 72.745,83.429 73.4,83.35 C75.088,83.147 76.816,83.193 78.507,83.325 C80.198,83.456 81.915,83.679 83.552,84.139 C83.575,84.145 85.88,84.764 85.577,85.315 C83.354,89.35 80.456,92.905 76.284,95.024 C74.813,95.772 73.229,96.354 71.639,96.788 C69.006,97.507 66.309,97.675 63.588,97.714 C61.693,97.737 59.707,97.679 57.834,97.362 C56.82,97.19 55.721,97.028 54.899,96.372 C54.986,96.44 54.832,96.351 54.695,96.192 C54.582,96.057 57.015,95.807 56.804,95.823 C58.498,95.699 58.285,95.744 58.516,95.67 L58.516,95.67 Z" id="Shape"></path>
                <path d="M89.245,86.889 C87.778,86.762 86.27,86.957 84.854,87.168 C83.014,87.439 81.192,87.826 79.442,88.365 C78.497,88.654 77.108,89.011 76.411,89.728 C76.284,89.861 76.173,89.949 76.108,90.121 C76.04,90.205 75.999,90.285 75.977,90.359 C75.762,90.636 75.543,90.914 75.338,91.197 C75.402,91.109 75.467,91.021 75.531,90.933 C74.433,92.328 73.412,93.777 72.299,95.162 C70.488,97.359 68.469,99.363 66.182,101.133 C65.205,101.889 64.197,102.615 63.116,103.242 C62.848,103.398 62.578,103.549 62.303,103.691 C60.749,104.027 59.045,104.324 57.643,104.982 C57.571,105.037 57.498,105.091 57.426,105.148 C58.488,105.382 59.621,105.22 60.663,105.099 C63.26,104.798 65.807,104.261 68.329,103.693 C70.716,103.154 73.108,102.521 75.276,101.49 C77.085,100.631 78.702,99.474 80.221,98.244 C81.922,96.869 83.647,95.514 85.176,93.967 C87.072,92.049 88.78,90.008 90.162,87.725 C90.101,87.823 90.041,87.922 89.98,88.02 C90.044,87.891 90.13,87.78 90.238,87.68 C90.813,87.059 89.6,86.92 89.245,86.889 L89.245,86.889 Z" id="Shape"></path>
                <path d="M101.991,85.65 C101.845,84.298 101.542,82.974 101.063,81.729 C100.668,80.708 100.286,79.541 99.485,78.731 C99.559,78.876 99.54,78.857 99.454,78.704 C98.884,78.657 98.354,78.841 97.87,79.255 C97.458,79.56 97.044,79.864 96.63,80.167 C94.903,81.568 93.38,83.161 91.982,84.766 C90.582,86.371 89.246,88.057 88.228,89.805 C88.109,90.014 86.787,92.143 87.576,92.332 C88.215,92.484 88.527,92.937 88.781,93.41 C89.785,95.435 90.492,97.676 90.717,99.971 C91.018,103.053 90.647,106.237 90.072,109.44 C89.609,112.028 89.062,114.61 88.402,117.204 C88.238,117.847 88.066,118.485 87.849,119.124 C87.755,119.394 87.661,119.663 87.564,119.933 C87.5,120.035 87.431,120.134 87.367,120.238 C86.449,121.693 85.529,123.168 84.775,124.662 C84.775,124.662 83.879,126.195 84.722,125.525 C86.245,124.318 87.333,122.687 88.413,121.257 C90.485,118.511 92.292,115.657 94.04,112.81 C95.304,110.751 96.444,108.63 97.308,106.496 C97.54,105.922 98.136,104.512 98.236,104.281 C98.623,103.365 98.955,102.449 99.254,101.527 C99.74,100.023 100.166,98.519 100.547,97.015 C101.506,93.23 102.385,89.293 101.991,85.65 L101.991,85.65 Z" id="Shape"></path>
                <path d="M126.348,61.191 C126.399,61.273 126.45,61.357 126.498,61.44 C126.029,60.634 125.133,60.172 124.318,59.73 C122.808,58.91 121.111,58.281 119.455,57.75 C117.086,56.988 114.684,56.347 112.139,56.199 C110.6,56.109 109.014,56.15 107.465,56.367 C103.07,56.978 99.254,59.199 95.85,62.032 C95.819,62.058 95.821,62.096 95.809,62.13 C94.514,63.226 93.301,64.488 92.188,65.758 C90.364,67.837 88.649,69.994 87.383,72.493 C86.703,73.832 86.123,75.251 85.68,76.699 C85.203,75.799 84.635,74.919 83.944,74.424 C82.649,73.494 81.358,72.554 80.042,71.655 C68.915,64.072 57.772,56.546 47.755,47.496 C47.653,47.403 46.949,46.759 46.909,46.724 C46.702,46.533 46.496,46.341 46.291,46.149 C45.709,45.601 45.128,45.051 44.555,44.494 C43.41,43.38 42.28,42.25 41.176,41.092 C38.862,38.666 36.596,36.168 34.428,33.607 C33.284,32.256 32.166,30.883 31.092,29.475 C30.907,29.234 30.725,28.991 30.543,28.746 C30.49,28.674 30.442,28.608 30.408,28.56 C29.955,27.923 29.529,27.266 29.103,26.611 C28.776,26.107 28.457,25.597 28.137,25.089 C28.053,24.944 27.952,24.772 27.849,24.594 C26.74,21.963 27.385,23.627 27.313,23.444 C26.311,20.89 25.185,18.375 23.904,15.947 C23.193,14.602 22.369,12.813 21.182,11.778 C20.153,10.881 20.611,13.076 20.624,13.196 C20.629,13.235 20.631,13.252 20.635,13.285 C20.632,13.779 20.66,14.271 20.728,14.76 C20.853,15.579 20.988,16.399 21.173,17.207 C21.761,19.78 22.548,22.228 23.383,24.732 C24.747,28.815 26.708,32.738 28.702,36.542 C32.341,43.482 36.938,50.242 42.245,56.02 C46.977,61.173 52.155,65.925 57.563,70.357 C63.025,74.833 68.687,79.099 74.448,83.224 L74.401,83.224 C74.401,83.224 74.475,83.262 74.598,83.332 C75.18,83.748 75.762,84.162 76.346,84.574 C78.26,86.217 80.692,89.379 79.242,94.142 C78.756,95.08 78.287,96.021 77.83,96.956 C77.623,97.378 77.428,97.806 77.228,98.229 C77.15,98.356 77.117,98.43 77.121,98.454 C76.592,99.579 76.078,100.712 75.596,101.858 C74.119,103.704 72.352,105.305 70.325,106.536 C69.833,106.807 69.335,107.063 68.821,107.292 C68.469,107.446 68.11,107.577 67.757,107.728 C67.534,107.824 67.741,107.759 66.068,108.04 C66.277,108.003 63.877,108.479 64.002,108.602 C64.152,108.748 64.302,108.815 64.498,108.938 C64.407,108.879 64.314,108.823 64.224,108.764 C65.101,109.34 66.213,109.399 67.238,109.475 C69.131,109.616 71.111,109.489 72.996,109.286 C72.312,111.52 71.807,113.821 71.435,116.122 C71.351,116.642 71.271,117.165 71.191,117.686 C69.775,119.624 68.265,121.485 66.572,123.217 C65.125,124.699 63.611,126.119 62.025,127.451 C61.224,128.125 60.412,128.783 59.581,129.418 C59.202,129.707 58.822,129.994 58.437,130.275 C58.23,130.425 58.025,130.574 57.818,130.72 C57.801,130.732 57.795,130.738 57.775,130.751 C56.048,131.944 54.274,133.071 52.445,134.099 C51.536,134.613 50.619,135.119 49.681,135.581 C49.175,135.829 48.665,136.069 48.152,136.304 C47.971,136.386 47.79,136.468 47.608,136.548 C47.582,136.56 47.571,136.566 47.539,136.579 C45.684,137.364 43.794,138.073 41.868,138.671 C41.672,138.728 41.476,138.784 41.279,138.837 C40.841,138.956 40.403,139.067 39.965,139.181 C39.53,139.292 39.094,139.404 38.656,139.505 C38.506,139.538 38.356,139.571 38.206,139.607 C36.712,139.902 35.168,140.197 33.781,140.847 C33.427,141.015 32.228,141.646 33.127,142.117 C34.18,142.668 35.772,142.584 36.893,142.57 C38.959,142.545 41,142.293 43.036,141.961 C49.773,140.863 56.383,138.688 62.549,135.666 C62.031,136.168 61.521,136.678 60.989,137.164 C60.046,138.027 59.087,138.877 58.104,139.695 C57.9,139.867 57.696,140.035 57.491,140.203 C57.036,140.562 56.577,140.92 56.116,141.269 C55.196,141.962 54.249,142.619 53.294,143.261 C53.052,143.419 52.798,143.583 52.663,143.669 C52.169,143.98 51.675,144.284 51.175,144.581 C50.963,144.708 50.75,144.831 50.537,144.956 C50.046,145.226 49.554,145.491 49.058,145.749 C49.008,145.774 48.957,145.8 48.908,145.825 C48.477,146.03 48.046,146.233 47.612,146.432 C47.55,146.459 47.487,146.489 47.425,146.516 C47.066,146.664 46.704,146.805 46.343,146.948 C45.239,147.251 44.132,147.548 43.023,147.827 C42.656,147.917 42.29,148.009 41.922,148.095 C41.814,148.111 41.694,148.134 41.561,148.167 C39.385,148.54 37.217,149.593 35.275,150.544 C33.582,151.374 31.9,152.288 30.369,153.394 C30.302,153.441 30.232,153.496 30.164,153.544 C30.091,153.593 30.012,153.634 29.939,153.683 C29.632,153.89 28.105,154.742 28.164,155.371 C28.223,156.023 34.869,154.426 35.933,154.148 C45.316,151.699 54.266,147.427 62.461,142.183 C62.026,142.845 61.579,143.499 61.121,144.146 C60.917,144.423 60.658,144.775 60.535,144.937 C60.181,145.4 59.826,145.859 59.463,146.312 C59.307,146.509 59.149,146.701 58.991,146.894 C58.627,147.316 58.262,147.736 57.888,148.15 C57.86,148.181 57.831,148.211 57.804,148.242 C57.462,148.596 57.12,148.947 56.774,149.297 C56.722,149.348 56.67,149.401 56.617,149.453 C56.339,149.711 56.056,149.965 55.773,150.219 C54.843,150.893 53.91,151.559 52.966,152.213 C52.653,152.428 52.339,152.643 52.023,152.854 C51.931,152.907 51.833,152.967 51.724,153.042 C49.814,154.155 48.152,155.903 46.663,157.478 C45.368,158.847 44.115,160.294 43.069,161.867 C43.022,161.937 42.974,162.013 42.927,162.086 C42.876,162.156 42.817,162.221 42.767,162.291 C42.551,162.592 41.42,163.924 41.696,164.492 C41.981,165.08 47.643,161.254 48.542,160.619 C58.263,153.773 66.412,144.588 72.986,134.74 C73.068,134.615 73.148,134.49 73.23,134.367 C78.984,129.615 84.187,124.15 88.242,117.906 C89.248,116.91 89.994,116.035 90.158,115.496 C92.933,106.387 93.262,102.094 92.564,98.465 C93.031,98.244 93.523,98.108 94.054,98.209 C94.964,98.383 95.398,95.592 95.45,95.324 C95.577,94.635 95.665,93.937 95.733,93.236 C96.655,92.504 97.544,91.718 98.331,90.841 C98.468,90.689 99.925,89.159 99.419,88.675 C99.007,88.28 98.898,87.728 98.835,87.179 C98.632,84.853 98.69,82.436 99.101,80.151 C99.652,77.087 100.705,74.18 101.902,71.339 C102.203,70.628 102.519,69.927 102.83,69.223 C103.641,69.261 104.502,69.153 105.357,68.837 C106.324,68.481 107.136,67.927 107.757,67.275 C107.804,67.248 107.853,67.223 107.894,67.187 C109.074,66.15 110.3,65.171 111.607,64.292 C114.263,62.608 117.242,61.445 120.316,61.048 C120.888,60.998 121.461,60.959 122.031,60.96 C122.392,60.962 122.75,60.987 123.109,60.993 C123.336,60.995 123.136,60.972 124.648,61.359 C124.459,61.31 126.662,61.805 126.611,61.657 C126.551,61.478 126.458,61.367 126.348,61.191 L126.348,61.191 Z M30.933,29.276 C30.955,29.308 30.951,29.302 30.933,29.276 L30.933,29.276 L30.933,29.276 Z M42.149,148.068 C42.087,148.07 42.012,148.082 41.935,148.093 C42.579,147.932 42.437,148.012 42.149,148.068 L42.149,148.068 Z M50.801,144.811 C51.533,144.391 51.154,144.613 50.801,144.811 L50.801,144.811 L50.801,144.811 Z M57.521,140.182 C58.51,139.373 57.768,139.984 57.521,140.182 L57.521,140.182 L57.521,140.182 Z M52.231,152.744 C52.175,152.767 52.108,152.805 52.042,152.842 C52.589,152.465 52.481,152.59 52.231,152.744 L52.231,152.744 Z M59.133,146.729 C59.801,145.92 59.414,146.396 59.133,146.729 L59.133,146.729 L59.133,146.729 Z" id="Shape"></path>
            </g>
        </g>
    </g>
</svg>