<?xml version="1.0" encoding="UTF-8" standalone="no"?>
<svg width="2221px" height="1930px" viewBox="0 0 2221 1930" version="1.1" xmlns="http://www.w3.org/2000/svg" xmlns:xlink="http://www.w3.org/1999/xlink" xmlns:sketch="http://www.bohemiancoding.com/sketch/ns">
    <!-- Generator: Sketch 3.0.2 (7799) - http://www.bohemiancoding.com/sketch -->
    <title>Untitled 2</title>
    <description>Created with Sketch.</description>
    <defs></defs>
    <g id="Page-1" stroke="none" stroke-width="1" fill="none" fill-rule="evenodd" sketch:type="MSPage">
        <g id="Windows_logo" sketch:type="MSLayerGroup" fill="#000000">
            <g id="Livello_x0020_1" transform="translate(0.077495, 0.412000)" sketch:type="MSShapeGroup">
                <g id="g3000" transform="translate(0.000000, -0.302000)">
                    <path d="M0,265.591422 L791.563754,156.797842 L791.563754,920.668686 L0.04824549,920.668686 L0,265.591422 L0,265.591422 Z M791.563754,1018.41405 L791.563754,1773.64895 L0.09649098,1665.00011 L0.04824549,1018.46229 L791.563754,1018.46229 L791.563754,1018.41405 Z M879.129319,144.784715 L1932.42486,0 L1932.42486,920.668686 L879.129319,920.668686 L879.129319,144.784715 L879.129319,144.784715 Z M1932.42486,1018.41405 L1932.42486,1930.30205 L879.129319,1785.66208 L879.129319,1018.41405 L1932.42486,1018.41405 L1932.42486,1018.41405 Z" id="path13"></path>
                    <path d="M2091.73146,1843.41193 L2061.28856,1843.41193 L2061.28856,1929.38539 L2043.7272,1929.38539 L2043.7272,1843.41193 L2013.33254,1843.41193 L2013.33254,1829.32424 L2091.73146,1829.32424 L2091.73146,1843.41193 L2091.73146,1843.41193 Z M2221.02938,1929.38539 L2203.61276,1929.38539 L2203.61276,1864.63994 C2203.61276,1859.33294 2203.95047,1852.86804 2204.62591,1845.19701 L2204.33644,1845.19701 C2203.27504,1849.5391 2202.31013,1852.72331 2201.44171,1854.60488 L2169.79267,1929.43364 L2157.68305,1929.43364 L2125.98576,1855.18383 C2125.11734,1853.01278 2124.15243,1849.6356 2123.13928,1845.19701 L2122.84981,1845.19701 C2123.23577,1849.20139 2123.42875,1855.71453 2123.42875,1864.78468 L2123.42875,1929.38539 L2107.17002,1929.38539 L2107.17002,1829.32424 L2131.91996,1829.32424 L2159.80585,1895.95127 C2161.88041,1901.06529 2163.27953,1904.87668 2163.95496,1907.38545 L2164.29268,1907.38545 C2166.12601,1902.12669 2167.57337,1898.2188 2168.73127,1895.66179 L2197.09961,1829.32424 L2220.98113,1829.32424 L2220.98113,1929.38539 L2221.02938,1929.38539 Z" id="path17"></path>
                </g>
            </g>
        </g>
    </g>
</svg>