<svg width="247" height="302" xmlns="http://www.w3.org/2000/svg" xmlns:sketch="http://www.bohemiancoding.com/sketch/ns"><title>Untitled 2</title><g sketch:type="MSLayerGroup" fill="none"><path d="M236.823 101.562l.092.061v.608l-.092.061-.061.091-5.431 4.047c-3.6 2.677-6.773 5.436-9.519 8.276-2.746 2.84-5.187 5.933-7.323 9.28-2.136 3.347-3.865 6.694-5.187 10.041-1.322 3.347-2.339 6.744-3.051 10.193-.712 3.448-1.068 8.215-1.068 14.3 0 6.085.407 11.055 1.22 14.909.814 3.854 1.983 7.606 3.509 11.258 1.526 3.651 3.356 7.099 5.492 10.345 2.136 3.245 4.373 6.085 6.712 8.519 2.339 2.434 4.76 4.686 7.262 6.755 2.482 2.089 5.35 4.097 8.604 6.024 3.254 1.927 5.034 2.941 5.339 3.043l.458.152.305.152.305.152.305.091.305.061v.608l-4.027 10.041c-2.705 6.694-5.512 12.698-8.421 18.012-2.888 5.335-6.265 10.791-10.13 16.369-3.865 5.578-7.343 10.223-10.435 13.935-3.112 3.692-5.96 6.734-8.543 9.128-2.604 2.373-5.278 4.371-8.024 5.994-2.746 1.623-5.492 2.84-8.238 3.651-2.746.811-4.526 1.268-5.339 1.369l-1.22.152-.305.091-.305.061-2.441-.061c-1.627-.061-4.068-.396-7.323-1.004-3.254-.609-8.187-2.079-14.798-4.412-6.611-2.333-11.797-3.905-15.56-4.716-3.763-.811-7.628-1.217-11.594-1.217-3.966 0-7.526.304-10.679.913-3.153.609-7.729 1.978-13.73 4.108-6 2.13-10.882 3.702-14.645 4.716l-5.644 1.521-1.22.152-1.22.152v.152h-6.102v-.152l-1.068-.152-1.068-.152-.61-.152c-.407-.101-1.119-.304-2.136-.609-1.017-.304-2.797-1.065-5.339-2.282-2.543-1.217-5.289-2.992-8.238-5.325s-5.695-4.868-8.238-7.606c-2.543-2.738-5.929-6.917-10.16-12.535-4.21-5.639-7.811-10.872-10.801-15.7-3.01-4.807-5.919-10.122-8.726-15.943-2.787-5.842-5.35-12.008-7.689-18.499-2.339-6.491-4.322-13.083-5.95-19.777-1.627-6.694-2.878-13.59-3.753-20.69l-1.281-10.649v-13.692h.153l.915-7.911c.61-5.274 1.526-10.243 2.746-14.909 1.22-4.665 2.695-8.976 4.424-12.931 1.729-3.955 3.712-7.759 5.95-11.41 2.237-3.651 4.505-6.815 6.804-9.493 2.278-2.698 4.688-5.213 7.231-7.546s5.746-4.716 9.611-7.15 7.78-4.462 11.747-6.085c3.966-1.623 7.933-2.84 11.899-3.651 3.966-.811 8.289-1.217 12.967-1.217 4.678 0 9.458.609 14.34 1.826s11.035 3.144 18.459 5.781c7.424 2.637 11.797 4.108 13.12 4.412 1.322.304 2.899.406 4.729.304 1.831-.101 7.984-1.927 18.459-5.477 10.475-3.55 17.747-5.73 21.815-6.542 4.068-.811 8.39-1.217 12.967-1.217s9.407.507 14.493 1.521c5.085 1.014 9.458 2.231 13.12 3.651 3.661 1.42 7.099 3.073 10.313 4.959 3.193 1.866 6.163 3.966 8.909 6.298 2.746 2.333 5.238 4.817 7.475 7.454 2.237 2.637 3.488 4.138 3.753 4.503l.427.609z" id="Shape" stroke="#221E20" fill="#221E20" sketch:type="MSShapeGroup" transform="translate(1 1)"/><path d="M0 77.89v-77.89h180.318v.061c0 .061-1.17.294-3.509.7-2.339.406-5.39 1.268-9.153 2.586-3.763 1.318-7.323 2.89-10.679 4.716s-6.509 3.854-9.458 6.085-5.594 4.665-7.933 7.302c-2.339 2.637-4.526 5.426-6.56 8.367-2.034 2.941-3.844 6.065-5.431 9.371-1.566 3.286-2.807 6.755-3.722 10.406-.915 3.651-1.444 7.809-1.587 12.475l-.244 6.998 5.034-.061c3.356-.061 6.865-.548 10.526-1.46 3.661-.913 6.997-2.15 10.007-3.712 2.99-1.582 5.98-3.57 8.97-5.963 3.01-2.373 5.756-4.949 8.238-7.728 2.502-2.799 4.872-5.974 7.109-9.523 2.237-3.55 4.068-6.998 5.492-10.345 1.424-3.347 2.543-6.694 3.356-10.041.814-3.347 1.322-6.998 1.526-10.953.203-3.955.275-6.491.214-7.606l-.061-1.673h62.546v219.98l-.305-.061-.305-.091-.305-.152-.305-.152-.458-.152c-.305-.101-2.085-1.116-5.339-3.043-3.254-1.927-6.122-3.935-8.604-6.024-2.502-2.069-4.922-4.32-7.262-6.755-2.339-2.434-4.577-5.274-6.712-8.519-2.136-3.245-3.966-6.694-5.492-10.345-1.526-3.651-2.695-7.404-3.509-11.258-.814-3.854-1.22-8.824-1.22-14.909 0-6.085.356-10.852 1.068-14.3.712-3.448 1.729-6.846 3.051-10.193 1.322-3.347 3.051-6.694 5.187-10.041 2.136-3.347 4.577-6.44 7.323-9.28 2.746-2.84 5.919-5.598 9.519-8.276l5.431-4.047.061-.091.092-.061v-.608l-.092-.061-.427-.609c-.264-.365-1.515-1.866-3.753-4.503-2.237-2.637-4.729-5.122-7.475-7.454-2.746-2.333-5.716-4.432-8.909-6.298-3.214-1.886-6.651-3.54-10.313-4.959-3.661-1.42-8.034-2.637-13.12-3.651-5.085-1.014-9.916-1.521-14.493-1.521s-8.899.406-12.967 1.217c-4.068.811-11.34 2.992-21.815 6.542-10.475 3.55-16.628 5.375-18.459 5.477-1.831.101-3.407 0-4.729-.304s-5.695-1.775-13.12-4.412c-7.424-2.637-13.577-4.564-18.459-5.781-4.882-1.217-9.662-1.826-14.34-1.826-4.678 0-9.001.406-12.967 1.217-3.966.811-7.933 2.028-11.899 3.651-3.966 1.623-7.882 3.651-11.747 6.085s-7.068 4.817-9.611 7.15c-2.543 2.333-4.953 4.848-7.231 7.546-2.298 2.677-4.566 5.842-6.804 9.493-2.237 3.651-4.221 7.454-5.95 11.41-1.729 3.955-3.204 8.266-4.424 12.931-1.22 4.665-2.136 9.635-2.746 14.909l-.915 7.911h-.153v-77.89z" id="Shape" stroke="#fff" fill="#fff" sketch:type="MSShapeGroup" transform="translate(1 1)"/><path d="M0 234.584v-65.112l1.281 10.649c.875 7.099 2.126 13.996 3.753 20.69 1.627 6.694 3.61 13.286 5.95 19.777 2.339 6.491 4.902 12.657 7.689 18.499 2.807 5.822 5.716 11.136 8.726 15.943 2.99 4.828 6.59 10.061 10.801 15.7 4.231 5.619 7.617 9.797 10.16 12.535 2.543 2.738 5.289 5.274 8.238 7.606 2.949 2.333 5.695 4.108 8.238 5.325 2.543 1.217 4.322 1.978 5.339 2.282 1.017.304 1.729.507 2.136.609l.61.152 1.068.152 1.068.152v.152h-75.056v-65.112z" id="Shape" stroke="#fff" fill="#fff" sketch:type="MSShapeGroup" transform="translate(1 1)"/><path d="M180.318.061v-.061h2.136l.061 1.673c.061 1.116-.01 3.651-.214 7.606-.203 3.955-.712 7.606-1.526 10.953-.814 3.347-1.932 6.694-3.356 10.041-1.424 3.347-3.254 6.795-5.492 10.345-2.237 3.55-4.607 6.724-7.109 9.523-2.482 2.779-5.227 5.355-8.238 7.728-2.99 2.394-5.98 4.381-8.97 5.963-3.01 1.562-6.346 2.799-10.007 3.712-3.661.913-7.17 1.4-10.526 1.46l-5.034.061.244-6.998c.142-4.665.671-8.824 1.587-12.475.915-3.651 2.156-7.12 3.722-10.406 1.587-3.306 3.397-6.43 5.431-9.371 2.034-2.941 4.221-5.73 6.56-8.367 2.339-2.637 4.983-5.071 7.933-7.302 2.949-2.231 6.102-4.26 9.458-6.085 3.356-1.826 6.916-3.398 10.679-4.716s6.814-2.181 9.153-2.586c2.339-.406 3.509-.639 3.509-.7z" id="Shape" stroke="#221E20" fill="#221E20" sketch:type="MSShapeGroup" transform="translate(1 1)"/><path d="M240.973 230.629l4.027-10.041v79.108h-64.988v-.304l.305-.061.305-.091 1.22-.152c.814-.101 2.593-.558 5.339-1.369 2.746-.811 5.492-2.028 8.238-3.651 2.746-1.623 5.421-3.621 8.024-5.994 2.583-2.394 5.431-5.436 8.543-9.128 3.092-3.712 6.57-8.357 10.435-13.935 3.865-5.578 7.241-11.034 10.13-16.369 2.909-5.314 5.716-11.318 8.421-18.012z" stroke="#fff" fill="#fff" sketch:type="MSShapeGroup" transform="translate(1 1)"/><path d="M177.572 299.331l2.441.061v.304h-98.854v-.152l1.22-.152 1.22-.152 5.644-1.521c3.763-1.014 8.645-2.586 14.645-4.716 6-2.13 10.577-3.499 13.73-4.108 3.153-.609 6.712-.913 10.679-.913 3.966 0 7.831.406 11.594 1.217 3.763.811 8.95 2.383 15.56 4.716 6.611 2.333 11.543 3.803 14.798 4.412 3.254.609 5.695.943 7.323 1.004z" stroke="#FEFEFE" fill="#FEFEFE" sketch:type="MSShapeGroup" transform="translate(1 1)"/></g></svg>